<svg width="1440" height="181" viewBox="0 0 1440 181" fill="none" xmlns="http://www.w3.org/2000/svg">
<path d="M303.652 54.0126C287.388 50.872 281.668 46.7219 281.668 38.5339C281.668 31.0189 286.603 26.3079 295.688 26.3079C308.363 26.3079 316.663 33.3743 320.252 45.1516L321.598 49.526H326.422V21.4849H321.598L318.121 31.0189C312.85 23.7282 305.335 20.0267 295.128 20.0267C280.883 20.0267 270.564 27.3174 270.564 40.5528C270.564 54.0126 279.2 61.3033 296.025 64.6682C314.196 68.4818 319.019 72.071 319.019 81.2685C319.019 90.5782 311.055 95.1769 301.633 95.1769C289.407 95.1769 278.864 88.1106 275.499 73.9778L274.489 69.7156H269.666V100H274.489L277.966 90.3539C283.238 97.3081 291.426 101.458 301.521 101.458C319.131 101.458 330.235 92.1485 330.235 78.1279C330.235 64.556 321.038 57.3775 303.652 54.0126ZM380.048 83.1753C377.356 90.5782 373.094 94.1674 367.71 94.1674C362.775 94.1674 360.42 90.5782 360.42 80.932V49.1895H378.702V43.9178H360.42V23.3917H356.83L349.315 43.9178L340.23 45.1516V49.1895H349.315V81.605C349.315 93.158 352.905 101.458 364.57 101.458C375.45 101.458 381.058 94.6161 383.862 84.4091L380.048 83.1753ZM428.482 42.4596C423.21 42.4596 416.031 48.0679 408.404 65.229L411.657 42.684L410.423 42.4596L390.57 52.1058V53.3396L399.431 57.2653V87.5497C399.431 92.7093 397.861 95.0648 392.477 95.8499L390.233 96.1864V100H421.976V96.1864L419.733 95.9621C412.106 95.1769 410.535 92.7093 410.535 87.5497V69.2669C413.339 64.3317 416.816 59.2843 420.069 55.3585C430.725 57.041 434.202 53.4517 434.202 48.2922C434.202 44.4786 432.183 42.4596 428.482 42.4596ZM484.959 61.5276C484.959 48.7408 479.799 42.4596 468.359 42.4596C455.235 42.4596 441.215 51.545 441.215 59.5086C441.215 62.8736 443.346 64.6682 446.599 64.6682C451.085 64.6682 454.45 61.6398 454.675 55.022C454.787 52.6666 454.562 51.0963 454.226 49.8625C456.469 49.526 459.161 49.3017 462.526 49.3017C472.172 49.3017 473.855 54.1247 473.855 63.0979V66.4628L465.106 68.4818C444.355 73.1927 438.859 79.0252 438.859 87.3254C438.859 96.0742 445.477 101.458 454.675 101.458C462.863 101.458 468.695 96.8594 473.855 91.2512V91.4755C473.855 96.9716 476.547 101.122 482.267 101.122C486.529 101.122 491.128 99.1027 493.932 94.7283V92.5971H484.959V61.5276ZM458.6 92.7093C453.329 92.7093 450.524 89.5687 450.524 85.1943C450.524 80.4834 453.441 77.3428 463.423 74.09L473.855 70.7251V87.5497C469.144 90.5782 463.872 92.7093 458.6 92.7093ZM539.094 83.1753C536.402 90.5782 532.14 94.1674 526.756 94.1674C521.821 94.1674 519.465 90.5782 519.465 80.932V49.1895H537.748V43.9178H519.465V23.3917H515.876L508.361 43.9178L499.276 45.1516V49.1895H508.361V81.605C508.361 93.158 511.95 101.458 523.615 101.458C534.495 101.458 540.104 94.6161 542.908 84.4091L539.094 83.1753ZM577.769 42.4596C563.3 42.4596 548.718 53.9004 548.718 73.5292C548.718 91.0268 560.944 101.458 575.75 101.458C589.995 101.458 597.846 93.0458 601.66 83.1753L597.734 81.7172C594.93 87.2133 588.985 92.485 579.227 92.485C568.011 92.485 561.169 85.3065 561.169 71.1737H601.996C603.679 53.7882 595.491 42.4596 577.769 42.4596ZM577.769 47.9557C585.957 47.9557 590.107 54.5734 589.995 66.1263H561.505C562.963 54.4612 569.581 47.9557 577.769 47.9557ZM627.639 90.2417C622.816 90.2417 621.134 88.7836 621.134 86.6524C621.134 83.7362 623.601 81.4929 628.424 79.6982C630.668 80.2591 633.135 80.5955 635.827 80.5955C650.521 80.5955 659.27 71.6224 659.27 61.1911C659.27 56.4802 657.475 52.2179 654.222 48.9652H667.233V43.9178H645.698C642.781 43.0205 639.529 42.4596 635.827 42.4596C621.246 42.4596 612.609 50.7598 612.609 61.1911C612.609 68.1453 616.535 74.4265 623.377 77.9036C615.862 81.0442 612.946 85.1943 612.946 89.3444C612.946 93.831 615.862 97.7567 621.919 99.327C612.833 101.458 608.123 105.384 608.123 110.207C608.123 118.619 619.451 122.657 636.725 122.657C654.671 122.657 668.018 115.815 668.018 103.365C668.018 93.0458 660.616 90.2417 650.409 90.2417H627.639ZM635.827 47.507C643.454 47.507 647.717 53.1153 647.717 61.1911C647.717 69.7156 643.454 75.5481 635.827 75.5481C628.312 75.5481 624.162 69.7156 624.162 61.1911C624.162 53.1153 628.312 47.507 635.827 47.507ZM637.734 117.498C625.059 117.498 620.012 113.46 620.012 108.524C620.012 104.711 623.04 101.907 627.976 100H648.614C655.119 100 657.924 101.458 657.924 105.945C657.924 111.777 650.857 117.498 637.734 117.498ZM711.26 47.3949L713.167 47.8435C718.439 49.0773 719.561 51.2085 716.42 58.6113L704.082 87.7741L691.856 58.6113C688.828 51.3206 689.837 49.0773 695.109 47.8435L697.016 47.3949V43.9178H669.984V47.7314L671.554 48.4043C675.031 49.8625 676.041 51.2085 678.396 56.2559L698.698 100.336L693.763 109.983C679.406 109.646 675.929 112.226 675.929 117.61C675.929 120.863 677.948 122.769 681.649 122.769C690.061 122.769 697.464 115.367 704.306 100.336L723.935 56.9288C726.066 52.1058 727.636 49.8625 731.114 48.4043L732.684 47.7314V43.9178H711.26V47.3949Z" fill="#EEEEEE"/>
<path d="M952.783 68.6018C962.205 66.1342 970.842 59.2922 970.842 49.1974C970.842 37.4201 961.756 32.4849 945.268 32.4849H903.094V36.2985L905.337 36.635C912.852 37.7566 914.535 41.2337 914.535 48.6366V94.8483C914.535 102.251 912.852 105.728 905.337 106.85L903.094 107.186V111H942.464C968.71 111 977.235 100.344 977.235 87.782C977.235 74.5465 965.906 69.7235 952.783 68.6018ZM957.27 51.5528C957.27 61.9841 948.745 67.1437 936.968 67.1437H926.2V38.0931H936.968C948.745 38.0931 957.27 41.1215 957.27 51.5528ZM926.2 105.392V72.7519H940.108C955.251 72.7519 963.999 75.7804 963.999 86.9968C963.999 98.2133 955.251 105.392 940.108 105.392H926.2ZM1025.14 53.4596C1019.87 53.4596 1012.69 59.0679 1005.06 76.229L1008.31 53.684L1007.08 53.4596L987.225 63.1058V64.3396L996.086 68.2653V98.5497C996.086 103.709 994.516 106.065 989.132 106.85L986.889 107.186V111H1018.63V107.186L1016.39 106.962C1008.76 106.177 1007.19 103.709 1007.19 98.5497V80.2669C1009.99 75.3317 1013.47 70.2843 1016.72 66.3585C1027.38 68.041 1030.86 64.4517 1030.86 59.2922C1030.86 55.4786 1028.84 53.4596 1025.14 53.4596ZM1081.61 72.5276C1081.61 59.7408 1076.45 53.4596 1065.01 53.4596C1051.89 53.4596 1037.87 62.545 1037.87 70.5086C1037.87 73.8736 1040 75.6682 1043.25 75.6682C1047.74 75.6682 1051.11 72.6398 1051.33 66.022C1051.44 63.6666 1051.22 62.0963 1050.88 60.8625C1053.12 60.526 1055.82 60.3017 1059.18 60.3017C1068.83 60.3017 1070.51 65.1247 1070.51 74.0979V77.4628L1061.76 79.4818C1041.01 84.1927 1035.51 90.0252 1035.51 98.3254C1035.51 107.074 1042.13 112.458 1051.33 112.458C1059.52 112.458 1065.35 107.859 1070.51 102.251V102.476C1070.51 107.972 1073.2 112.122 1078.92 112.122C1083.18 112.122 1087.78 110.103 1090.59 105.728V103.597H1081.61V72.5276ZM1055.26 103.709C1049.98 103.709 1047.18 100.569 1047.18 96.1943C1047.18 91.4834 1050.1 88.3428 1060.08 85.09L1070.51 81.7251V98.5497C1065.8 101.578 1060.53 103.709 1055.26 103.709ZM1163.45 106.85C1158.07 106.065 1156.5 103.709 1156.5 98.5497V73.8736C1156.5 61.0868 1152.24 53.4596 1140.57 53.4596C1130.81 53.4596 1122.96 60.7503 1117.35 68.041L1119.71 53.684L1118.48 53.4596L1098.62 63.1058V64.3396L1107.48 68.2653V98.5497C1107.48 103.709 1105.91 106.065 1100.53 106.85L1098.29 107.186V111H1127.79V107.186L1125.54 106.85C1120.16 106.065 1118.59 103.709 1118.59 98.5497V71.1816C1123.07 67.1437 1130.03 62.3206 1137.21 62.3206C1143.94 62.3206 1145.4 67.4802 1145.4 74.883V98.5497C1145.4 103.709 1143.83 106.065 1138.44 106.85L1136.2 107.186V111H1165.7V107.186L1163.45 106.85ZM1229.61 21.0441L1228.49 20.9319L1209.65 30.5781V31.8119L1218.51 35.7376V61.5355C1213.91 56.6002 1207.96 53.4596 1199.44 53.4596C1186.2 53.4596 1173.75 63.2179 1173.75 83.071C1173.75 102.924 1186.2 112.458 1198.65 112.458C1207.4 112.458 1214.02 109.43 1219.07 103.934V111.897L1220.3 112.122L1238.36 106.962V105.728L1229.61 102.139V21.0441ZM1202.36 106.289C1191.92 106.289 1186.54 97.8768 1186.54 83.071C1186.54 68.2653 1191.92 59.6287 1202.36 59.6287C1208.86 59.6287 1213.68 62.6571 1218.51 68.1532V98.7741C1213.91 103.821 1208.75 106.289 1202.36 106.289ZM1260.17 42.9162C1264.66 42.9162 1268.48 39.1026 1268.48 34.5038C1268.48 29.9051 1264.66 26.2037 1260.17 26.2037C1255.46 26.2037 1251.76 29.9051 1251.76 34.5038C1251.76 39.1026 1255.46 42.9162 1260.17 42.9162ZM1275.88 111V107.186L1273.63 106.85C1268.25 106.065 1266.68 103.709 1266.68 98.5497V53.5718L1265.56 53.4596L1246.72 63.1058V64.3396L1255.58 68.2653V98.5497C1255.58 103.709 1254.01 106.065 1248.62 106.85L1246.38 107.186V111H1275.88ZM1350.1 106.85C1344.72 106.065 1343.15 103.709 1343.15 98.5497V73.8736C1343.15 61.0868 1338.89 53.4596 1327.22 53.4596C1317.46 53.4596 1309.61 60.7503 1304 68.041L1306.36 53.684L1305.12 53.4596L1285.27 63.1058V64.3396L1294.13 68.2653V98.5497C1294.13 103.709 1292.56 106.065 1287.18 106.85L1284.94 107.186V111H1314.43V107.186L1312.19 106.85C1306.81 106.065 1305.24 103.709 1305.24 98.5497V71.1816C1309.72 67.1437 1316.68 62.3206 1323.86 62.3206C1330.59 62.3206 1332.04 67.4802 1332.04 74.883V98.5497C1332.04 103.709 1330.47 106.065 1325.09 106.85L1322.85 107.186V111H1352.35V107.186L1350.1 106.85ZM1376.33 101.242C1371.51 101.242 1369.82 99.7836 1369.82 97.6524C1369.82 94.7362 1372.29 92.4929 1377.12 90.6982C1379.36 91.2591 1381.83 91.5955 1384.52 91.5955C1399.21 91.5955 1407.96 82.6224 1407.96 72.1911C1407.96 67.4802 1406.17 63.2179 1402.91 59.9652H1415.92V54.9178H1394.39C1391.47 54.0205 1388.22 53.4596 1384.52 53.4596C1369.94 53.4596 1361.3 61.7598 1361.3 72.1911C1361.3 79.1453 1365.23 85.4265 1372.07 88.9036C1364.55 92.0442 1361.64 96.1943 1361.64 100.344C1361.64 104.831 1364.55 108.757 1370.61 110.327C1361.52 112.458 1356.81 116.384 1356.81 121.207C1356.81 129.619 1368.14 133.657 1385.42 133.657C1403.36 133.657 1416.71 126.815 1416.71 114.365C1416.71 104.046 1409.31 101.242 1399.1 101.242H1376.33ZM1384.52 58.507C1392.15 58.507 1396.41 64.1153 1396.41 72.1911C1396.41 80.7156 1392.15 86.5481 1384.52 86.5481C1377 86.5481 1372.85 80.7156 1372.85 72.1911C1372.85 64.1153 1377 58.507 1384.52 58.507ZM1386.42 128.498C1373.75 128.498 1368.7 124.46 1368.7 119.524C1368.7 115.711 1371.73 112.907 1376.67 111H1397.3C1403.81 111 1406.61 112.458 1406.61 116.945C1406.61 122.777 1399.55 128.498 1386.42 128.498Z" fill="#EEEEEE"/>
<path d="M863.158 67.8293C829.661 67.8293 808.329 89.149 808.329 122.658C808.329 89.149 787.009 67.8293 753.5 67.8293C787.009 67.8293 808.329 46.5094 808.329 13C808.341 46.5094 829.661 67.8293 863.158 67.8293Z" fill="#8790C4"/>
<path d="M185.614 32C186.007 41.3093 189.97 50.098 196.662 56.5018C203.354 62.9057 212.25 66.4211 221.462 66.3028" stroke="#EEEEEE" stroke-width="4.4966" stroke-miterlimit="10"/>
<path d="M184.806 100.394C185.179 90.956 189.231 82.0511 196.074 75.624C202.918 69.1969 211.998 65.7698 221.332 66.091" stroke="#EEEEEE" stroke-width="4.4966" stroke-miterlimit="10"/>
<path d="M-11 65.9988L221.488 66.082" stroke="#EEEEEE" stroke-width="7.08806" stroke-miterlimit="10"/>
</svg>
