<svg width="892" height="892" viewBox="0 0 892 892" fill="none" xmlns="http://www.w3.org/2000/svg">
<circle opacity="0.3" cx="446.005" cy="445.999" r="174.593" stroke="#EEEEEE" stroke-width="1.7625" stroke-linecap="round" stroke-linejoin="round" stroke-dasharray="6.17 5.29"/>
<circle opacity="0.5" cx="446.004" cy="446.004" r="253.441" stroke="#EEEEEE" stroke-width="1.7625" stroke-linecap="round" stroke-linejoin="round" stroke-dasharray="6.17 5.29"/>
<circle opacity="0.3" cx="446" cy="446" r="347.656" stroke="#EEEEEE" stroke-width="1.7625" stroke-linecap="round" stroke-linejoin="round" stroke-dasharray="6.17 5.29"/>
<circle opacity="0.3" cx="446" cy="446" r="445" stroke="#EEEEEE" stroke-width="1.7625" stroke-linecap="round" stroke-linejoin="round" stroke-dasharray="6.17 5.29"/>
<circle opacity="0.3" cx="446.205" cy="439.789" r="100.82" stroke="#EEEEEE" stroke-width="1.7625" stroke-linecap="round" stroke-linejoin="round" stroke-dasharray="6.17 5.29"/>
<path d="M664.425 663.185H666.042V672.768H664.288L658.859 665.776V672.768H657.241V663.185H658.859L664.425 670.341V663.185ZM674.39 672.768H672.991V671.794C672.388 672.516 671.58 672.877 670.565 672.877C669.807 672.877 669.176 672.662 668.673 672.233C668.18 671.803 667.933 671.232 667.933 670.519C667.933 669.797 668.198 669.258 668.728 668.902C669.258 668.545 669.976 668.367 670.88 668.367H672.868V668.093C672.868 667.124 672.329 666.64 671.251 666.64C670.574 666.64 669.871 666.887 669.139 667.38L668.454 666.421C669.341 665.717 670.346 665.365 671.47 665.365C672.329 665.365 673.028 665.584 673.567 666.023C674.116 666.453 674.39 667.133 674.39 668.066V672.768ZM672.854 670.053V669.436H671.127C670.021 669.436 669.468 669.784 669.468 670.478C669.468 670.835 669.606 671.109 669.88 671.301C670.154 671.484 670.533 671.575 671.017 671.575C671.511 671.575 671.941 671.438 672.306 671.164C672.672 670.89 672.854 670.519 672.854 670.053ZM678.338 666.708V670.41C678.338 670.757 678.43 671.036 678.613 671.246C678.795 671.447 679.051 671.548 679.38 671.548C679.709 671.548 680.025 671.388 680.326 671.068L680.957 672.151C680.418 672.635 679.819 672.877 679.161 672.877C678.512 672.877 677.955 672.653 677.489 672.206C677.032 671.749 676.803 671.136 676.803 670.369V666.708H675.885V665.475H676.803V663.185H678.338V665.475H680.258V666.708H678.338ZM687.276 669.423V665.475H688.811V672.768H687.276V671.438C687.029 671.886 686.686 672.238 686.248 672.493C685.818 672.749 685.352 672.877 684.85 672.877C684.027 672.877 683.36 672.626 682.848 672.123C682.345 671.621 682.094 670.894 682.094 669.944V665.475H683.629V669.478C683.629 670.821 684.187 671.493 685.302 671.493C685.832 671.493 686.293 671.319 686.686 670.972C687.079 670.615 687.276 670.099 687.276 669.423ZM694.863 666.914C694.105 666.914 693.534 667.161 693.15 667.654C692.766 668.148 692.574 668.81 692.574 669.642V672.768H691.039V665.475H692.574V666.942C692.821 666.485 693.154 666.11 693.575 665.817C694.004 665.525 694.457 665.374 694.932 665.365L694.945 666.914C694.918 666.914 694.891 666.914 694.863 666.914ZM703.273 669.793H697.556C697.593 670.323 697.835 670.752 698.283 671.081C698.731 671.401 699.243 671.561 699.818 671.561C700.732 671.561 701.427 671.273 701.902 670.698L702.779 671.657C701.993 672.471 700.97 672.877 699.709 672.877C698.685 672.877 697.812 672.539 697.09 671.863C696.377 671.177 696.021 670.264 696.021 669.121C696.021 667.97 696.387 667.056 697.118 666.379C697.849 665.703 698.708 665.365 699.695 665.365C700.691 665.365 701.536 665.667 702.231 666.27C702.925 666.864 703.273 667.686 703.273 668.737V669.793ZM697.556 668.587H701.737C701.737 667.974 701.546 667.504 701.162 667.175C700.778 666.846 700.303 666.681 699.736 666.681C699.179 666.681 698.676 666.855 698.228 667.202C697.78 667.54 697.556 668.002 697.556 668.587ZM663.825 682.185C665.543 682.185 666.863 682.606 667.786 683.447C668.709 684.278 669.171 685.439 669.171 686.929C669.171 688.418 668.723 689.597 667.828 690.465C666.932 691.333 665.561 691.768 663.715 691.768H660.535V682.185H663.825ZM667.54 686.97C667.54 684.776 666.283 683.68 663.77 683.68H662.152V690.246H663.948C665.109 690.246 665.995 689.972 666.607 689.423C667.229 688.866 667.54 688.048 667.54 686.97ZM674.863 685.914C674.104 685.914 673.533 686.161 673.149 686.654C672.766 687.148 672.574 687.81 672.574 688.642V691.768H671.038V684.475H672.574V685.942C672.82 685.485 673.154 685.11 673.574 684.817C674.004 684.525 674.456 684.374 674.932 684.365L674.945 685.914C674.918 685.914 674.89 685.914 674.863 685.914ZM678.022 691.768H676.487V684.475H678.022V691.768ZM676.583 683.022C676.391 682.83 676.295 682.601 676.295 682.336C676.295 682.071 676.391 681.843 676.583 681.651C676.775 681.459 677.003 681.363 677.268 681.363C677.533 681.363 677.762 681.459 677.954 681.651C678.146 681.843 678.242 682.071 678.242 682.336C678.242 682.601 678.146 682.83 677.954 683.022C677.762 683.214 677.533 683.31 677.268 683.31C677.003 683.31 676.775 683.214 676.583 683.022ZM682.182 691.768L679.248 684.475H680.838L683.059 689.985L685.28 684.475H686.87L683.936 691.768H682.182ZM694.879 688.793H689.163C689.199 689.323 689.441 689.752 689.889 690.081C690.337 690.401 690.849 690.561 691.425 690.561C692.338 690.561 693.033 690.273 693.508 689.698L694.386 690.657C693.6 691.471 692.576 691.877 691.315 691.877C690.291 691.877 689.419 691.539 688.697 690.863C687.984 690.177 687.627 689.264 687.627 688.121C687.627 686.97 687.993 686.056 688.724 685.379C689.455 684.703 690.314 684.365 691.301 684.365C692.297 684.365 693.143 684.667 693.837 685.27C694.532 685.864 694.879 686.686 694.879 687.737V688.793ZM689.163 687.587H693.344C693.344 686.974 693.152 686.504 692.768 686.175C692.384 685.846 691.909 685.681 691.342 685.681C690.785 685.681 690.282 685.855 689.834 686.202C689.387 686.54 689.163 687.002 689.163 687.587ZM698.103 687.82V691.768H696.567V684.475H698.103V685.804C698.35 685.357 698.688 685.005 699.117 684.749C699.556 684.493 700.027 684.365 700.529 684.365C701.352 684.365 702.014 684.616 702.517 685.119C703.029 685.622 703.285 686.348 703.285 687.299V691.768H701.749V687.765C701.749 686.421 701.192 685.75 700.077 685.75C699.547 685.75 699.085 685.928 698.692 686.284C698.299 686.632 698.103 687.143 698.103 687.82Z" fill="#EEEEEE"/>
<path d="M195.455 210.664H193.646L189.794 201.082H191.603L194.551 208.238L197.498 201.082H199.308L195.455 210.664ZM207.247 207.689H201.531C201.568 208.219 201.81 208.649 202.257 208.978C202.705 209.298 203.217 209.458 203.793 209.458C204.707 209.458 205.401 209.17 205.876 208.594L206.754 209.554C205.968 210.367 204.944 210.774 203.683 210.774C202.66 210.774 201.787 210.436 201.065 209.759C200.352 209.074 199.996 208.16 199.996 207.018C199.996 205.866 200.361 204.952 201.092 204.276C201.823 203.6 202.682 203.262 203.669 203.262C204.666 203.262 205.511 203.563 206.205 204.166C206.9 204.76 207.247 205.583 207.247 206.634V207.689ZM201.531 206.483H205.712C205.712 205.871 205.52 205.4 205.136 205.071C204.752 204.742 204.277 204.578 203.711 204.578C203.153 204.578 202.65 204.751 202.203 205.098C201.755 205.437 201.531 205.898 201.531 206.483ZM215.68 203.371V209.732C215.68 211.02 215.328 211.985 214.625 212.624C213.93 213.273 213.034 213.598 211.938 213.598C210.841 213.598 209.85 213.255 208.963 212.57L209.69 211.404C210.402 211.944 211.12 212.213 211.842 212.213C212.573 212.213 213.149 212.026 213.569 211.651C213.999 211.276 214.213 210.678 214.213 209.855V208.923C213.985 209.353 213.656 209.695 213.226 209.951C212.806 210.207 212.331 210.335 211.801 210.335C210.832 210.335 210.037 209.997 209.415 209.321C208.794 208.644 208.483 207.804 208.483 206.798C208.483 205.793 208.794 204.952 209.415 204.276C210.037 203.6 210.827 203.262 211.787 203.262C212.756 203.262 213.542 203.659 214.145 204.454V203.371H215.68ZM209.991 206.743C209.991 207.338 210.174 207.854 210.54 208.293C210.914 208.722 211.412 208.937 212.034 208.937C212.664 208.937 213.172 208.727 213.555 208.306C213.948 207.886 214.145 207.365 214.145 206.743C214.145 206.113 213.948 205.583 213.555 205.153C213.162 204.715 212.655 204.495 212.034 204.495C211.412 204.495 210.914 204.719 210.54 205.167C210.174 205.615 209.991 206.14 209.991 206.743ZM223.813 210.664H222.415V209.691C221.812 210.413 221.003 210.774 219.989 210.774C219.23 210.774 218.6 210.559 218.097 210.129C217.603 209.7 217.357 209.129 217.357 208.416C217.357 207.694 217.622 207.155 218.152 206.798C218.682 206.442 219.399 206.264 220.304 206.264H222.292V205.99C222.292 205.021 221.752 204.536 220.674 204.536C219.998 204.536 219.294 204.783 218.563 205.277L217.878 204.317C218.764 203.613 219.769 203.262 220.893 203.262C221.752 203.262 222.452 203.481 222.991 203.92C223.539 204.349 223.813 205.03 223.813 205.962V210.664ZM222.278 207.95V207.333H220.551C219.445 207.333 218.892 207.68 218.892 208.375C218.892 208.731 219.029 209.005 219.303 209.197C219.577 209.38 219.957 209.471 220.441 209.471C220.935 209.471 221.364 209.334 221.73 209.06C222.095 208.786 222.278 208.416 222.278 207.95ZM227.486 206.716V210.664H225.951V203.371H227.486V204.701C227.733 204.253 228.071 203.901 228.5 203.645C228.939 203.39 229.41 203.262 229.912 203.262C230.735 203.262 231.397 203.513 231.9 204.016C232.412 204.518 232.668 205.245 232.668 206.195V210.664H231.132V206.661C231.132 205.318 230.575 204.646 229.46 204.646C228.93 204.646 228.468 204.824 228.075 205.181C227.682 205.528 227.486 206.04 227.486 206.716Z" fill="#EEEEEE"/>
<path d="M160.279 663.113V653.531H161.897V657.685H166.654V653.531H168.271V663.113H166.654V659.193H161.897V663.113H160.279ZM176.624 663.113H175.226V662.14C174.623 662.862 173.814 663.223 172.8 663.223C172.041 663.223 171.411 663.008 170.908 662.579C170.415 662.149 170.168 661.578 170.168 660.865C170.168 660.143 170.433 659.604 170.963 659.248C171.493 658.891 172.21 658.713 173.115 658.713H175.103V658.439C175.103 657.47 174.564 656.986 173.485 656.986C172.809 656.986 172.105 657.232 171.374 657.726L170.689 656.766C171.575 656.063 172.58 655.711 173.705 655.711C174.564 655.711 175.263 655.93 175.802 656.369C176.35 656.798 176.624 657.479 176.624 658.411V663.113ZM175.089 660.399V659.782H173.362C172.256 659.782 171.703 660.129 171.703 660.824C171.703 661.18 171.84 661.455 172.114 661.646C172.389 661.829 172.768 661.921 173.252 661.921C173.746 661.921 174.175 661.784 174.541 661.509C174.906 661.235 175.089 660.865 175.089 660.399ZM180.297 659.165V663.113H178.762V655.82H180.297V657.15C180.544 656.702 180.882 656.351 181.312 656.095C181.75 655.839 182.221 655.711 182.723 655.711C183.546 655.711 184.209 655.962 184.711 656.465C185.223 656.967 185.479 657.694 185.479 658.644V663.113H183.944V659.11C183.944 657.767 183.386 657.095 182.271 657.095C181.741 657.095 181.28 657.274 180.887 657.63C180.494 657.977 180.297 658.489 180.297 659.165ZM190.599 663.223C189.676 663.223 188.871 662.876 188.186 662.181C187.501 661.487 187.158 660.573 187.158 659.439C187.158 658.306 187.51 657.401 188.213 656.725C188.917 656.049 189.753 655.711 190.722 655.711C191.7 655.711 192.486 656.122 193.08 656.945V652.942H194.615V663.113H193.08V662.017C192.513 662.821 191.686 663.223 190.599 663.223ZM188.693 659.508C188.693 660.203 188.917 660.769 189.365 661.208C189.813 661.646 190.338 661.866 190.941 661.866C191.545 661.866 192.056 661.646 192.477 661.208C192.897 660.76 193.107 660.189 193.107 659.494C193.107 658.8 192.897 658.219 192.477 657.753C192.056 657.287 191.54 657.054 190.928 657.054C190.315 657.054 189.79 657.287 189.351 657.753C188.913 658.219 188.693 658.804 188.693 659.508ZM198.37 659.165V663.113H196.834V655.82H198.37V657.15C198.589 656.702 198.918 656.351 199.357 656.095C199.804 655.839 200.284 655.711 200.796 655.711C201.947 655.711 202.729 656.186 203.14 657.136C203.862 656.186 204.762 655.711 205.841 655.711C206.663 655.711 207.326 655.962 207.828 656.465C208.34 656.967 208.596 657.694 208.596 658.644V663.113H207.061V659.11C207.061 657.767 206.503 657.095 205.388 657.095C204.867 657.095 204.41 657.264 204.017 657.603C203.634 657.932 203.433 658.416 203.414 659.056V663.113H201.879V659.11C201.879 658.416 201.756 657.909 201.509 657.589C201.262 657.26 200.874 657.095 200.344 657.095C199.814 657.095 199.352 657.274 198.959 657.63C198.566 657.977 198.37 658.489 198.37 659.165ZM216.638 663.113H215.24V662.14C214.637 662.862 213.828 663.223 212.814 663.223C212.055 663.223 211.425 663.008 210.922 662.579C210.428 662.149 210.182 661.578 210.182 660.865C210.182 660.143 210.447 659.604 210.977 659.248C211.507 658.891 212.224 658.713 213.129 658.713H215.117V658.439C215.117 657.47 214.577 656.986 213.499 656.986C212.823 656.986 212.119 657.232 211.388 657.726L210.703 656.766C211.589 656.063 212.594 655.711 213.718 655.711C214.577 655.711 215.277 655.93 215.816 656.369C216.364 656.798 216.638 657.479 216.638 658.411V663.113ZM215.103 660.399V659.782H213.376C212.27 659.782 211.717 660.129 211.717 660.824C211.717 661.18 211.854 661.455 212.128 661.646C212.402 661.829 212.782 661.921 213.266 661.921C213.76 661.921 214.189 661.784 214.555 661.509C214.92 661.235 215.103 660.865 215.103 660.399ZM221.75 663.223C220.827 663.223 220.023 662.876 219.338 662.181C218.652 661.487 218.31 660.573 218.31 659.439C218.31 658.306 218.661 657.401 219.365 656.725C220.069 656.049 220.905 655.711 221.874 655.711C222.852 655.711 223.638 656.122 224.232 656.945V652.942H225.767V663.113H224.232V662.017C223.665 662.821 222.838 663.223 221.75 663.223ZM219.845 659.508C219.845 660.203 220.069 660.769 220.517 661.208C220.964 661.646 221.49 661.866 222.093 661.866C222.696 661.866 223.208 661.646 223.628 661.208C224.049 660.76 224.259 660.189 224.259 659.494C224.259 658.8 224.049 658.219 223.628 657.753C223.208 657.287 222.692 657.054 222.079 657.054C221.467 657.054 220.942 657.287 220.503 657.753C220.064 658.219 219.845 658.804 219.845 659.508ZM234.772 660.139H229.055C229.092 660.669 229.334 661.098 229.782 661.427C230.23 661.747 230.741 661.907 231.317 661.907C232.231 661.907 232.925 661.619 233.401 661.043L234.278 662.003C233.492 662.816 232.469 663.223 231.207 663.223C230.184 663.223 229.311 662.885 228.589 662.209C227.876 661.523 227.52 660.609 227.52 659.467C227.52 658.315 227.885 657.401 228.617 656.725C229.348 656.049 230.207 655.711 231.194 655.711C232.19 655.711 233.035 656.012 233.73 656.616C234.424 657.21 234.772 658.032 234.772 659.083V660.139ZM229.055 658.932H233.236C233.236 658.32 233.044 657.849 232.66 657.52C232.277 657.191 231.801 657.027 231.235 657.027C230.677 657.027 230.175 657.2 229.727 657.548C229.279 657.886 229.055 658.347 229.055 658.932ZM180.92 683.113H176.725V673.531H180.454C181.103 673.531 181.66 673.609 182.126 673.764C182.602 673.92 182.954 674.13 183.182 674.395C183.621 674.888 183.84 675.446 183.84 676.067C183.84 676.817 183.602 677.374 183.127 677.74C182.954 677.868 182.835 677.95 182.771 677.986C182.707 678.014 182.593 678.064 182.428 678.137C183.022 678.265 183.493 678.535 183.84 678.946C184.196 679.348 184.375 679.851 184.375 680.454C184.375 681.121 184.146 681.71 183.689 682.222C183.15 682.816 182.227 683.113 180.92 683.113ZM178.343 677.507H180.399C181.569 677.507 182.154 677.109 182.154 676.314C182.154 675.857 182.012 675.528 181.729 675.327C181.446 675.126 181.007 675.025 180.413 675.025H178.343V677.507ZM178.343 681.619H180.879C181.473 681.619 181.925 681.528 182.236 681.345C182.556 681.153 182.716 680.797 182.716 680.276C182.716 679.426 182.035 679.001 180.673 679.001H178.343V681.619ZM191.284 679.768V675.82H192.82V683.113H191.284V681.784C191.038 682.231 190.695 682.583 190.256 682.839C189.827 683.095 189.361 683.223 188.858 683.223C188.036 683.223 187.368 682.972 186.857 682.469C186.354 681.966 186.103 681.24 186.103 680.289V675.82H187.638V679.823C187.638 681.167 188.195 681.838 189.31 681.838C189.84 681.838 190.302 681.665 190.695 681.317C191.088 680.961 191.284 680.445 191.284 679.768ZM195.966 686.019C195.298 686.019 194.695 685.777 194.156 685.293L194.855 684.045C195.175 684.347 195.504 684.498 195.842 684.498C196.189 684.498 196.468 684.374 196.678 684.128C196.898 683.881 197.007 683.611 197.007 683.319C197.007 683.191 196.025 680.691 194.06 675.82H195.705L197.885 681.194L200.064 675.82H201.709L198.173 684.484C197.962 684.959 197.661 685.334 197.268 685.608C196.875 685.882 196.441 686.019 195.966 686.019ZM209.704 680.139H203.988C204.024 680.669 204.267 681.098 204.714 681.427C205.162 681.747 205.674 681.907 206.25 681.907C207.164 681.907 207.858 681.619 208.333 681.043L209.211 682.003C208.425 682.816 207.401 683.223 206.14 683.223C205.117 683.223 204.244 682.885 203.522 682.209C202.809 681.523 202.453 680.609 202.453 679.467C202.453 678.315 202.818 677.401 203.549 676.725C204.28 676.049 205.139 675.711 206.126 675.711C207.123 675.711 207.968 676.012 208.662 676.616C209.357 677.21 209.704 678.032 209.704 679.083V680.139ZM203.988 678.932H208.169C208.169 678.32 207.977 677.849 207.593 677.52C207.209 677.191 206.734 677.027 206.168 677.027C205.61 677.027 205.107 677.2 204.66 677.548C204.212 677.886 203.988 678.347 203.988 678.932ZM215.217 677.26C214.459 677.26 213.888 677.507 213.504 678C213.12 678.494 212.928 679.156 212.928 679.988V683.113H211.393V675.82H212.928V677.287C213.175 676.83 213.508 676.456 213.929 676.163C214.358 675.871 214.811 675.72 215.286 675.711L215.3 677.26C215.272 677.26 215.245 677.26 215.217 677.26ZM222.037 680.934C222.037 681.628 221.785 682.186 221.283 682.606C220.78 683.017 220.136 683.223 219.35 683.223C218.82 683.223 218.267 683.127 217.691 682.935C217.125 682.743 216.622 682.474 216.183 682.126L216.923 680.934C217.773 681.573 218.596 681.893 219.391 681.893C219.738 681.893 220.012 681.816 220.213 681.66C220.415 681.496 220.515 681.29 220.515 681.043C220.515 680.678 220.031 680.349 219.062 680.056C218.989 680.029 218.934 680.011 218.897 680.001C217.38 679.59 216.622 678.905 216.622 677.945C216.622 677.269 216.882 676.73 217.403 676.328C217.933 675.916 218.619 675.711 219.46 675.711C220.3 675.711 221.095 675.958 221.845 676.451L221.269 677.589C220.675 677.196 220.031 676.999 219.336 676.999C218.971 676.999 218.674 677.068 218.445 677.205C218.217 677.333 218.102 677.529 218.102 677.794C218.102 678.032 218.221 678.206 218.459 678.315C218.623 678.398 218.852 678.475 219.144 678.548C219.446 678.622 219.711 678.695 219.939 678.768C220.168 678.841 220.387 678.923 220.597 679.014C220.817 679.106 221.05 679.234 221.296 679.398C221.79 679.727 222.037 680.239 222.037 680.934Z" fill="#EEEEEE"/>
<path d="M670.688 226.35V227.871H665.575V230.407H670.167V231.847H665.575V234.41H670.852V235.932H663.957V226.35H670.688ZM675.942 236.041C674.928 236.041 674.055 235.699 673.324 235.013C672.593 234.319 672.227 233.414 672.227 232.299C672.227 231.184 672.606 230.279 673.365 229.585C674.133 228.881 675.065 228.529 676.161 228.529C677.258 228.529 678.186 228.908 678.944 229.667L678.039 230.777C677.409 230.229 676.774 229.955 676.134 229.955C675.494 229.955 674.937 230.17 674.462 230.599C673.995 231.019 673.762 231.568 673.762 232.244C673.762 232.911 673.995 233.478 674.462 233.944C674.928 234.41 675.499 234.643 676.175 234.643C676.861 234.643 677.505 234.332 678.108 233.711L679.013 234.698C678.126 235.594 677.103 236.041 675.942 236.041ZM682.158 234.012C682.597 234.451 683.149 234.67 683.817 234.67C684.484 234.67 685.032 234.451 685.462 234.012C685.9 233.565 686.12 232.989 686.12 232.285C686.12 231.582 685.9 231.01 685.462 230.572C685.032 230.124 684.484 229.9 683.817 229.9C683.149 229.9 682.597 230.124 682.158 230.572C681.728 231.01 681.514 231.582 681.514 232.285C681.514 232.989 681.728 233.565 682.158 234.012ZM686.558 234.958C685.827 235.68 684.913 236.041 683.817 236.041C682.72 236.041 681.806 235.68 681.075 234.958C680.344 234.227 679.978 233.336 679.978 232.285C679.978 231.234 680.344 230.348 681.075 229.626C681.806 228.895 682.72 228.529 683.817 228.529C684.913 228.529 685.827 228.895 686.558 229.626C687.289 230.348 687.655 231.234 687.655 232.285C687.655 233.336 687.289 234.227 686.558 234.958ZM689.277 232.559V231.12H693.828V232.559H689.277ZM700.512 234.465C701.07 234.465 701.55 234.373 701.952 234.191C702.354 233.999 702.774 233.697 703.213 233.286L704.255 234.355C703.24 235.479 702.007 236.041 700.553 236.041C699.11 236.041 697.908 235.575 696.948 234.643C695.998 233.711 695.523 232.532 695.523 231.106C695.523 229.681 696.007 228.493 696.976 227.542C697.953 226.592 699.183 226.116 700.663 226.116C702.153 226.116 703.396 226.665 704.392 227.761L703.364 228.886C702.907 228.447 702.473 228.141 702.061 227.967C701.659 227.793 701.184 227.707 700.636 227.707C699.667 227.707 698.854 228.022 698.196 228.653C697.538 229.274 697.209 230.074 697.209 231.051C697.209 232.02 697.533 232.834 698.182 233.492C698.84 234.14 699.617 234.465 700.512 234.465ZM707.513 234.012C707.952 234.451 708.504 234.67 709.172 234.67C709.839 234.67 710.387 234.451 710.817 234.012C711.255 233.565 711.475 232.989 711.475 232.285C711.475 231.582 711.255 231.01 710.817 230.572C710.387 230.124 709.839 229.9 709.172 229.9C708.504 229.9 707.952 230.124 707.513 230.572C707.083 231.01 706.869 231.582 706.869 232.285C706.869 232.989 707.083 233.565 707.513 234.012ZM711.913 234.958C711.182 235.68 710.268 236.041 709.172 236.041C708.075 236.041 707.161 235.68 706.43 234.958C705.699 234.227 705.333 233.336 705.333 232.285C705.333 231.234 705.699 230.348 706.43 229.626C707.161 228.895 708.075 228.529 709.172 228.529C710.268 228.529 711.182 228.895 711.913 229.626C712.644 230.348 713.01 231.234 713.01 232.285C713.01 233.336 712.644 234.227 711.913 234.958ZM716.291 231.984V235.932H714.756V228.639H716.291V229.969C716.538 229.521 716.876 229.169 717.305 228.913C717.744 228.657 718.215 228.529 718.717 228.529C719.54 228.529 720.202 228.78 720.705 229.283C721.217 229.786 721.473 230.512 721.473 231.463V235.932H719.937V231.929C719.937 230.585 719.38 229.914 718.265 229.914C717.735 229.914 717.273 230.092 716.88 230.448C716.487 230.796 716.291 231.307 716.291 231.984ZM728.813 233.752C728.813 234.447 728.562 235.004 728.059 235.424C727.557 235.836 726.912 236.041 726.126 236.041C725.596 236.041 725.044 235.945 724.468 235.753C723.901 235.562 723.399 235.292 722.96 234.945L723.7 233.752C724.55 234.392 725.373 234.712 726.168 234.712C726.515 234.712 726.789 234.634 726.99 234.479C727.191 234.314 727.292 234.108 727.292 233.862C727.292 233.496 726.807 233.167 725.839 232.875C725.765 232.847 725.711 232.829 725.674 232.82C724.157 232.409 723.399 231.723 723.399 230.764C723.399 230.087 723.659 229.548 724.18 229.146C724.71 228.735 725.395 228.529 726.236 228.529C727.077 228.529 727.872 228.776 728.621 229.269L728.046 230.407C727.452 230.014 726.807 229.818 726.113 229.818C725.747 229.818 725.45 229.886 725.222 230.023C724.993 230.151 724.879 230.348 724.879 230.613C724.879 230.85 724.998 231.024 725.235 231.134C725.4 231.216 725.628 231.294 725.921 231.367C726.222 231.44 726.487 231.513 726.716 231.586C726.944 231.659 727.164 231.741 727.374 231.833C727.593 231.924 727.826 232.052 728.073 232.217C728.567 232.546 728.813 233.057 728.813 233.752ZM733.787 236.041C732.773 236.041 731.9 235.699 731.169 235.013C730.438 234.319 730.073 233.414 730.073 232.299C730.073 231.184 730.452 230.279 731.21 229.585C731.978 228.881 732.91 228.529 734.007 228.529C735.103 228.529 736.031 228.908 736.79 229.667L735.885 230.777C735.254 230.229 734.619 229.955 733.979 229.955C733.34 229.955 732.782 230.17 732.307 230.599C731.841 231.019 731.608 231.568 731.608 232.244C731.608 232.911 731.841 233.478 732.307 233.944C732.773 234.41 733.344 234.643 734.021 234.643C734.706 234.643 735.35 234.332 735.953 233.711L736.858 234.698C735.972 235.594 734.948 236.041 733.787 236.041ZM739.986 235.932H738.451V228.639H739.986V235.932ZM738.547 227.186C738.355 226.994 738.259 226.765 738.259 226.5C738.259 226.235 738.355 226.007 738.547 225.815C738.739 225.623 738.967 225.527 739.232 225.527C739.497 225.527 739.726 225.623 739.917 225.815C740.109 226.007 740.205 226.235 740.205 226.5C740.205 226.765 740.109 226.994 739.917 227.186C739.726 227.378 739.497 227.474 739.232 227.474C738.967 227.474 738.739 227.378 738.547 227.186ZM743.912 234.012C744.351 234.451 744.904 234.67 745.571 234.67C746.238 234.67 746.786 234.451 747.216 234.012C747.655 233.565 747.874 232.989 747.874 232.285C747.874 231.582 747.655 231.01 747.216 230.572C746.786 230.124 746.238 229.9 745.571 229.9C744.904 229.9 744.351 230.124 743.912 230.572C743.483 231.01 743.268 231.582 743.268 232.285C743.268 232.989 743.483 233.565 743.912 234.012ZM748.313 234.958C747.582 235.68 746.668 236.041 745.571 236.041C744.474 236.041 743.56 235.68 742.829 234.958C742.098 234.227 741.733 233.336 741.733 232.285C741.733 231.234 742.098 230.348 742.829 229.626C743.56 228.895 744.474 228.529 745.571 228.529C746.668 228.529 747.582 228.895 748.313 229.626C749.044 230.348 749.409 231.234 749.409 232.285C749.409 233.336 749.044 234.227 748.313 234.958ZM756.254 232.587V228.639H757.79V235.932H756.254V234.602C756.008 235.05 755.665 235.402 755.226 235.657C754.797 235.913 754.331 236.041 753.828 236.041C753.006 236.041 752.338 235.79 751.827 235.287C751.324 234.785 751.073 234.058 751.073 233.108V228.639H752.608V232.642C752.608 233.985 753.166 234.657 754.28 234.657C754.811 234.657 755.272 234.483 755.665 234.136C756.058 233.779 756.254 233.263 756.254 232.587ZM765.213 233.752C765.213 234.447 764.961 235.004 764.459 235.424C763.956 235.836 763.312 236.041 762.526 236.041C761.996 236.041 761.443 235.945 760.867 235.753C760.301 235.562 759.798 235.292 759.359 234.945L760.099 233.752C760.949 234.392 761.772 234.712 762.567 234.712C762.914 234.712 763.188 234.634 763.389 234.479C763.591 234.314 763.691 234.108 763.691 233.862C763.691 233.496 763.207 233.167 762.238 232.875C762.165 232.847 762.11 232.829 762.073 232.82C760.556 232.409 759.798 231.723 759.798 230.764C759.798 230.087 760.058 229.548 760.579 229.146C761.109 228.735 761.795 228.529 762.636 228.529C763.476 228.529 764.271 228.776 765.021 229.269L764.445 230.407C763.851 230.014 763.207 229.818 762.512 229.818C762.147 229.818 761.85 229.886 761.621 230.023C761.393 230.151 761.278 230.348 761.278 230.613C761.278 230.85 761.397 231.024 761.635 231.134C761.799 231.216 762.028 231.294 762.32 231.367C762.622 231.44 762.887 231.513 763.115 231.586C763.344 231.659 763.563 231.741 763.773 231.833C763.993 231.924 764.226 232.052 764.472 232.217C764.966 232.546 765.213 233.057 765.213 233.752Z" fill="#EEEEEE"/>
<path d="M76.7331 431.068L76.9798 431.15C77.9257 431.424 77.5556 432.302 77.254 432.919L74.3204 438.772L73.3197 432.713C73.1415 431.657 73.4431 431.246 74.1833 431.123L74.4575 431.068L74.5672 430.451H70.2353L70.0982 431.068L70.2216 431.109C70.7837 431.274 70.9207 431.753 71.0441 432.425L71.3183 433.919L68.8919 438.676L67.9049 432.713C67.7404 431.74 68.1105 431.246 68.796 431.123L69.0564 431.068L69.1524 430.451H64.8891L64.7794 431.068L64.9028 431.123C65.4648 431.328 65.5882 432 65.6567 432.425L67.0139 440.047H69.2895L71.6199 435.592L72.4287 440.047H74.6768L78.6385 432.548C79.1869 431.507 79.4473 431.246 79.9134 431.109L80.0368 431.068L80.1327 430.451H76.8427L76.7331 431.068ZM81.914 440.253C84.6556 440.253 86.191 438.251 86.191 435.907C86.191 433.933 84.9846 432.905 83.2437 432.905C80.5431 432.905 78.9804 434.879 78.9804 437.223C78.9804 439.183 80.1867 440.253 81.914 440.253ZM82.1059 439.457C81.5301 439.457 81.2011 438.841 81.2011 437.758C81.2011 435.646 82.0373 433.714 83.0381 433.714C83.6275 433.714 83.9702 434.289 83.9702 435.386C83.9702 437.497 83.1203 439.457 82.1059 439.457ZM98.4871 438.059C98.0622 438.786 97.7332 439.183 97.4042 439.183C97.1163 439.183 97.1163 438.799 97.2945 438.128L97.9936 435.619C98.4871 433.837 97.9525 432.905 96.8833 432.905C95.7043 432.905 94.7722 433.892 94.0456 435.084C94.1964 433.631 93.8263 432.905 92.8941 432.905C91.5507 432.905 90.5089 434.152 89.7549 435.564L90.4815 432.946L90.3581 432.905L87.3697 434.139L87.3423 434.289L88.0688 434.879L87.164 440.047H89.1929L89.8372 436.496C90.3307 435.551 91.1943 434.235 91.77 434.235C92.099 434.235 92.0853 434.742 91.9483 435.523L91.1395 440.047H93.182L93.7989 436.538C94.2924 435.592 95.1971 434.235 95.7866 434.235C96.143 434.235 96.1567 434.714 95.9374 435.523L95.2931 437.867C94.8955 439.279 95.3205 440.266 96.4583 440.266C97.5138 440.266 98.2952 439.704 98.8984 438.306L98.4871 438.059ZM103.216 439.005C102.298 439.005 101.846 438.32 101.846 437.154V437.1C105.012 436.688 106.123 435.948 106.123 434.605C106.123 433.659 105.341 432.905 103.902 432.905C101.201 432.905 99.5426 434.893 99.5426 437.278C99.5426 439.142 100.639 440.266 102.325 440.266C104.094 440.266 105.19 439.183 105.794 437.703L105.41 437.525C104.916 438.361 104.176 439.005 103.216 439.005ZM103.641 433.686C103.957 433.686 104.121 433.906 104.121 434.276C104.121 435.276 103.34 436.113 101.873 436.565C102.024 434.893 102.791 433.686 103.641 433.686ZM114.244 438.1C113.805 438.799 113.463 439.183 113.161 439.183C112.887 439.183 112.873 438.799 113.065 438.128L113.764 435.619C114.244 433.837 113.75 432.905 112.667 432.905C111.228 432.905 110.255 434.235 109.501 435.551L110.227 432.946L110.104 432.905L107.116 434.139L107.088 434.289L107.828 434.797L106.91 440.047H108.939L109.61 436.332C110.118 435.413 110.968 434.235 111.571 434.235C111.9 434.235 111.941 434.646 111.749 435.317L111.05 437.867C110.652 439.279 111.077 440.266 112.297 440.266C113.257 440.266 114.052 439.732 114.628 438.32L114.244 438.1Z" fill="#EEEEEE"/>
<path d="M397.565 810.299C398.799 810.299 399.731 810.943 399.813 812.519L399.827 812.876H400.677L401.252 809.572H400.485L400.005 810.559C399.484 809.764 398.607 809.353 397.51 809.353C395.399 809.353 394.069 810.491 394.069 812.245C394.069 813.753 394.96 814.658 396.619 815.22C398.127 815.727 398.703 816.084 398.703 816.947C398.703 817.921 397.921 818.441 396.77 818.441C395.495 818.441 394.467 817.674 394.426 815.933L394.412 815.535H393.576L392.931 819.168H393.699L394.247 818.071C394.768 818.908 395.714 819.387 396.907 819.387C399.086 819.387 400.635 818.222 400.635 816.138C400.635 814.425 399.511 813.657 397.962 813.15C396.605 812.698 395.961 812.3 395.961 811.491C395.961 810.724 396.537 810.299 397.565 810.299ZM407.472 813.301C407.815 813.589 408.199 813.753 408.596 813.753C409.131 813.753 409.487 813.356 409.487 812.876C409.487 812.341 409.09 812.026 408.446 812.026C407.555 812.026 406.814 812.533 405.841 813.712L404.566 815.275L405.8 808.174L405.677 808.133L402.729 809.339L402.702 809.49L403.401 810.271L401.838 819.168H403.881L404.278 816.865L404.936 816.084L405.073 816.988C405.293 818.716 405.8 819.387 406.869 819.387C407.842 819.387 408.638 818.729 409.158 817.413L408.747 817.194C408.405 817.77 408.076 818.154 407.705 818.154C407.418 818.154 407.212 817.934 407.102 817.276L406.54 814.178C406.869 813.808 407.171 813.493 407.472 813.301ZM412.175 811.176C413.039 811.176 413.71 810.504 413.71 809.654C413.71 809.065 413.299 808.585 412.655 808.585C411.764 808.585 411.133 809.243 411.133 810.093C411.133 810.71 411.531 811.176 412.175 811.176ZM413.34 817.345C412.998 817.975 412.682 818.304 412.422 818.304C412.134 818.304 412.175 817.893 412.257 817.4L413.162 812.081L413.052 812.053L410.091 813.26L410.064 813.41L410.818 813.918L410.27 817.029C410.009 818.51 410.434 819.387 411.49 819.387C412.408 819.387 413.189 818.935 413.752 817.592L413.34 817.345ZM421.974 817.221C421.535 817.921 421.192 818.304 420.891 818.304C420.617 818.304 420.603 817.921 420.795 817.249L421.494 814.74C421.974 812.958 421.48 812.026 420.397 812.026C418.958 812.026 417.985 813.356 417.231 814.672L417.957 812.067L417.834 812.026L414.845 813.26L414.818 813.41L415.558 813.918L414.64 819.168H416.669L417.34 815.453C417.848 814.535 418.697 813.356 419.301 813.356C419.63 813.356 419.671 813.767 419.479 814.439L418.78 816.988C418.382 818.4 418.807 819.387 420.027 819.387C420.987 819.387 421.782 818.853 422.358 817.441L421.974 817.221ZM427.334 812.848C427.444 812.848 427.54 812.862 427.636 812.876C427.69 813.904 428.047 814.603 428.76 814.603C429.267 814.603 429.61 814.247 429.61 813.712C429.61 812.684 428.65 812.026 427.252 812.026C424.647 812.026 422.988 814.068 422.988 816.413C422.988 818.318 424.085 819.387 425.785 819.387C427.444 819.387 428.609 818.291 429.102 816.687L428.705 816.536C428.184 817.564 427.471 818.112 426.607 818.112C425.771 818.112 425.333 817.468 425.333 816.303C425.333 814.356 426.169 812.848 427.334 812.848ZM437.613 817.208C437.188 817.962 436.845 818.304 436.557 818.304C436.31 818.304 436.297 818.016 436.406 817.4L437.311 812.232H436.927L435.529 813.04C435.214 812.41 434.707 812.026 433.857 812.026C431.746 812.026 429.991 814.192 429.991 816.796C429.991 818.537 430.923 819.387 432.033 819.387C433.158 819.387 434.021 818.647 434.679 817.29C434.405 818.551 434.748 819.387 435.694 819.387C436.489 819.387 437.407 818.894 438.024 817.454L437.613 817.208ZM432.897 818.332C432.445 818.332 432.28 817.797 432.28 816.961C432.28 814.795 433.226 812.931 434.295 812.931C434.652 812.931 434.898 813.15 435.063 813.561L434.652 815.837C434.131 817.317 433.432 818.332 432.897 818.332ZM443.917 812.026C443.026 812.026 442.066 813.26 440.887 816.879L442.107 812.108L441.97 812.053L439.009 813.26L438.982 813.41L439.694 813.918L438.831 819.168H440.873L441.12 817.66C441.627 816.234 442.148 815.001 442.724 814.096C443.642 814.439 444.575 813.918 444.575 812.78C444.575 812.286 444.314 812.026 443.917 812.026ZM448.189 818.126C447.271 818.126 446.818 817.441 446.818 816.276V816.221C449.985 815.809 451.095 815.069 451.095 813.726C451.095 812.78 450.314 812.026 448.874 812.026C446.174 812.026 444.515 814.014 444.515 816.399C444.515 818.263 445.612 819.387 447.298 819.387C449.066 819.387 450.163 818.304 450.766 816.824L450.382 816.646C449.889 817.482 449.149 818.126 448.189 818.126ZM448.614 812.807C448.929 812.807 449.094 813.027 449.094 813.397C449.094 814.397 448.312 815.234 446.846 815.686C446.996 814.014 447.764 812.807 448.614 812.807ZM461.028 815.974C460.261 817.742 459.562 818.304 457.999 818.304H457.135L458.287 811.724C458.479 810.6 458.767 810.326 459.617 810.23L459.877 810.189L459.987 809.572H455.257L455.148 810.189L455.394 810.23C456.08 810.354 456.258 810.573 456.052 811.724L455.134 817.016C454.928 818.195 454.64 818.4 453.955 818.51L453.695 818.551L453.571 819.168H461.193L461.933 815.618H461.179L461.028 815.974ZM465.481 819.374C468.223 819.374 469.758 817.372 469.758 815.028C469.758 813.054 468.552 812.026 466.811 812.026C464.111 812.026 462.548 814 462.548 816.344C462.548 818.304 463.754 819.374 465.481 819.374ZM465.673 818.579C465.098 818.579 464.769 817.962 464.769 816.879C464.769 814.768 465.605 812.835 466.606 812.835C467.195 812.835 467.538 813.41 467.538 814.507C467.538 816.618 466.688 818.579 465.673 818.579ZM476.462 812.026C475.845 812.026 475.433 812.41 475.433 813.095C475.433 813.767 475.804 814.425 476.366 815.11C475.831 817.208 474.556 818.318 473.898 818.318C473.295 818.318 473.117 817.783 473.446 816.481L473.898 814.685C474.392 812.725 473.651 812.026 472.664 812.026C471.403 812.026 470.814 813.081 470.512 814.315L470.992 814.452C471.307 813.548 471.609 813.123 471.869 813.123C472.089 813.123 472.157 813.41 471.965 814.123L471.444 816.18C470.882 818.373 471.732 819.374 473.144 819.374C476.201 819.374 477.558 815.193 477.558 813.397C477.558 812.465 477.133 812.026 476.462 812.026ZM481.911 818.126C480.993 818.126 480.54 817.441 480.54 816.276V816.221C483.707 815.809 484.817 815.069 484.817 813.726C484.817 812.78 484.036 812.026 482.596 812.026C479.896 812.026 478.237 814.014 478.237 816.399C478.237 818.263 479.334 819.387 481.02 819.387C482.788 819.387 483.885 818.304 484.488 816.824L484.104 816.646C483.611 817.482 482.871 818.126 481.911 818.126ZM482.336 812.807C482.651 812.807 482.816 813.027 482.816 813.397C482.816 814.397 482.034 815.234 480.568 815.686C480.718 814.014 481.486 812.807 482.336 812.807ZM490.718 812.026C489.827 812.026 488.867 813.26 487.688 816.879L488.908 812.108L488.771 812.053L485.81 813.26L485.783 813.41L486.496 813.918L485.632 819.168H487.674L487.921 817.66C488.428 816.234 488.949 815.001 489.525 814.096C490.444 814.439 491.376 813.918 491.376 812.78C491.376 812.286 491.115 812.026 490.718 812.026ZM494.658 812.821C494.754 812.821 494.85 812.821 494.932 812.835C495.138 813.616 495.563 814.219 496.193 814.219C496.687 814.219 496.988 813.877 496.988 813.41C496.988 812.492 495.755 812.026 494.603 812.026C492.821 812.026 491.697 812.917 491.711 814.343C491.724 815.384 492.314 816.029 493.548 816.577C494.343 816.947 494.809 817.167 494.809 817.715C494.809 818.304 494.233 818.579 493.41 818.579C493.342 818.579 493.273 818.579 493.205 818.565C492.931 817.742 492.465 817.084 491.848 817.084C491.299 817.084 490.984 817.509 490.984 817.962C490.984 818.798 491.944 819.374 493.506 819.387C495.33 819.387 496.536 818.565 496.536 817.043C496.536 815.823 495.782 815.289 494.685 814.768C493.767 814.343 493.465 814.123 493.465 813.63C493.465 813.109 493.931 812.821 494.658 812.821Z" fill="#EEEEEE"/>
<path d="M414.16 71.6363L414.407 71.6774C415.093 71.8008 415.271 72.0201 415.065 73.1716L414.709 75.1867H411.09L411.446 73.1716C411.652 71.9927 411.926 71.7871 412.625 71.6774L412.885 71.6363L412.995 71.0194H408.417L408.307 71.6363L408.554 71.6774C409.239 71.8008 409.417 72.0201 409.212 73.1716L408.293 78.463C408.088 79.6419 407.8 79.8476 407.101 79.9572L406.84 79.9984L406.73 80.6152H411.309L411.432 79.9984L411.186 79.9572C410.487 79.8339 410.322 79.6145 410.514 78.463L410.939 76.0504H414.572L414.147 78.463C413.941 79.6419 413.653 79.8476 412.954 79.9572L412.694 79.9984L412.584 80.6152H417.162L417.286 79.9984L417.039 79.9572C416.34 79.8339 416.175 79.6145 416.367 78.463L417.3 73.1716C417.505 71.9927 417.779 71.7871 418.478 71.6774L418.739 71.6363L418.849 71.0194H414.27L414.16 71.6363ZM421.279 72.6233C422.142 72.6233 422.814 71.9516 422.814 71.1017C422.814 70.5122 422.403 70.0324 421.759 70.0324C420.868 70.0324 420.237 70.6904 420.237 71.5403C420.237 72.1572 420.635 72.6233 421.279 72.6233ZM422.444 78.792C422.101 79.4226 421.786 79.7516 421.526 79.7516C421.238 79.7516 421.279 79.3404 421.361 78.8469L422.266 73.528L422.156 73.5006L419.195 74.7069L419.168 74.8577L419.922 75.3649L419.373 78.4767C419.113 79.9572 419.538 80.8346 420.593 80.8346C421.512 80.8346 422.293 80.3822 422.855 79.0388L422.444 78.792ZM429.021 73.4732C427.829 73.4732 426.992 74.2683 426.307 75.6802L426.979 73.5143L426.855 73.4732L423.881 74.7069L423.853 74.8577L424.58 75.3649L423.223 83.2198H425.251L425.759 80.2862C426.088 80.6427 426.54 80.8346 427.143 80.8346C429.391 80.8346 431.091 78.7235 431.091 76.1326C431.091 74.3231 430.132 73.4732 429.021 73.4732ZM426.732 79.9435C426.334 79.9435 426.088 79.7379 425.923 79.3267L426.266 77.2978C426.773 75.7488 427.541 74.5699 428.185 74.5699C428.583 74.5699 428.788 75.0771 428.788 75.9818C428.788 78.1203 427.842 79.9435 426.732 79.9435ZM441.517 75.8447L441.75 75.8859C442.161 75.9681 442.422 76.1189 442.422 76.5164C442.422 76.8317 442.23 77.2704 441.915 77.7228L440.023 75.3787C441.654 74.8714 442.682 73.8433 442.682 72.6644C442.682 71.4855 441.75 70.8001 440.187 70.8001C438.131 70.8001 436.884 71.9653 436.884 73.5006C436.884 74.282 437.117 74.9263 437.487 75.5706C435.184 76.16 433.95 77.2567 433.95 78.7098C433.95 80.0121 435.033 80.8346 437.103 80.8346C438.597 80.8346 439.79 80.4507 440.736 79.8476L441.325 80.6152H444.382L444.519 79.9709L444.286 79.9298C443.697 79.7927 443.34 79.5186 442.819 78.8469L442.408 78.3397C442.655 78.0381 442.874 77.7091 443.08 77.3938C443.752 76.3245 444.122 76.0092 444.752 75.8859L444.931 75.8447L445.054 75.1867H441.654L441.517 75.8447ZM439.817 71.7185C440.366 71.7185 440.722 72.0749 440.722 72.7741C440.722 73.6103 440.256 74.3917 439.584 74.844C439.05 74.1723 438.721 73.5966 438.721 72.8837C438.721 72.1435 439.2 71.7185 439.817 71.7185ZM438.296 79.8064C437.035 79.8064 436.459 79.2033 436.459 78.2985C436.459 77.4349 436.966 76.6398 437.857 76.1463C438.063 76.4342 438.282 76.7221 438.515 77.0237L440.242 79.2307C439.653 79.5734 438.995 79.8064 438.296 79.8064ZM448.641 74.8714H449.423L449.683 74.186C450.492 72.0887 450.958 71.883 452.096 71.883H452.164L451.027 78.3945C450.821 79.5323 450.465 79.7927 449.56 79.9298L449.299 79.9709L449.176 80.6152H454.344L454.481 79.9709L454.234 79.9298C453.22 79.779 453.055 79.5323 453.247 78.3945L454.385 71.883C455.893 71.883 456.003 72.637 456.071 74.0627L456.099 74.8714H456.894L457.593 71.0194H449.34L448.641 74.8714ZM462.846 73.4732C461.955 73.4732 460.996 74.7069 459.817 78.3259L461.037 73.5554L460.9 73.5006L457.939 74.7069L457.911 74.8577L458.624 75.3649L457.761 80.6152H459.803L460.05 79.1073C460.557 77.6817 461.078 76.4479 461.654 75.5432C462.572 75.8859 463.504 75.3649 463.504 74.2272C463.504 73.7337 463.244 73.4732 462.846 73.4732ZM467.119 79.5734C466.2 79.5734 465.748 78.888 465.748 77.7228V77.6679C468.915 77.2567 470.025 76.5164 470.025 75.173C470.025 74.2272 469.244 73.4732 467.804 73.4732C465.104 73.4732 463.445 75.4609 463.445 77.8462C463.445 79.7105 464.542 80.8346 466.228 80.8346C467.996 80.8346 469.093 79.7516 469.696 78.2711L469.312 78.0929C468.819 78.9291 468.078 79.5734 467.119 79.5734ZM467.544 74.2546C467.859 74.2546 468.024 74.4739 468.024 74.844C468.024 75.8447 467.242 76.6809 465.775 77.1333C465.926 75.4609 466.694 74.2546 467.544 74.2546ZM478.146 78.6687C477.708 79.3678 477.365 79.7516 477.063 79.7516C476.789 79.7516 476.776 79.3678 476.967 78.6961L477.667 76.1874C478.146 74.4054 477.653 73.4732 476.57 73.4732C475.131 73.4732 474.157 74.8029 473.403 76.1189L474.13 73.5143L474.006 73.4732L471.018 74.7069L470.991 74.8577L471.731 75.3649L470.812 80.6152H472.841L473.513 76.9003C474.02 75.9818 474.87 74.8029 475.473 74.8029C475.802 74.8029 475.843 75.2142 475.651 75.8859L474.952 78.4356C474.555 79.8476 474.98 80.8346 476.2 80.8346C477.159 80.8346 477.954 80.2999 478.53 78.888L478.146 78.6687ZM486.906 78.6824C486.468 79.3541 486.166 79.7516 485.851 79.7516C485.577 79.7516 485.59 79.3815 485.686 78.8469L487.29 69.6211L487.18 69.58L484.219 70.7864L484.178 70.9372L484.919 71.5129L484.48 74.0215C484.165 73.6788 483.74 73.4732 483.15 73.4732C480.984 73.4732 479.188 75.6391 479.188 78.2437C479.188 79.9847 480.148 80.8346 481.258 80.8346C482.369 80.8346 483.191 80.1766 483.863 78.9702C483.685 80.0395 484 80.8346 485.001 80.8346C485.823 80.8346 486.687 80.2862 487.318 78.9291L486.906 78.6824ZM482.122 79.7653C481.683 79.7653 481.491 79.2444 481.491 78.3259C481.491 76.256 482.437 74.3917 483.534 74.3917C483.89 74.3917 484.137 74.5973 484.315 74.9948L483.904 77.3252C483.411 78.7372 482.698 79.7653 482.122 79.7653ZM493.721 73.4732C493.132 73.4732 492.638 73.8433 492.638 74.515C492.638 75.2004 493.063 75.8036 493.653 76.5027C493.2 78.1203 492.46 79.4089 491.638 80.3822L491.322 76.0641C491.172 73.9941 490.459 73.4732 489.581 73.4732C488.389 73.4732 487.827 74.5287 487.539 75.7625L488.005 75.8996C488.293 75.0222 488.567 74.6247 488.827 74.6247C489.047 74.6247 489.225 74.9674 489.321 76.2697L489.773 82.0409C489.458 82.2328 489.17 82.3699 488.91 82.4796C488.306 81.7667 487.854 81.5063 487.388 81.5063C486.853 81.5063 486.456 81.8901 486.456 82.4796C486.456 83.069 486.826 83.4392 487.635 83.4392C492.008 83.4392 494.818 77.4486 494.818 74.9674C494.818 73.9119 494.42 73.4732 493.721 73.4732Z" fill="#EEEEEE"/>
<path d="M766.522 423.476L766.673 423.517C767.509 423.682 767.372 424.504 766.632 425.45L765.192 427.287L764.356 425.258C763.959 424.257 764.219 423.682 764.932 423.531L765.137 423.476L765.261 422.859H760.669L760.559 423.476L760.682 423.531C761.189 423.709 761.464 424.257 761.71 424.778L763.314 428.192L762.972 430.303C762.793 431.4 762.368 431.687 761.71 431.797L761.45 431.838L761.354 432.455H766.029L766.138 431.838L765.891 431.797C765.096 431.66 765.042 431.29 765.206 430.303L765.549 428.219L768.263 424.915C769.085 423.915 769.497 423.627 769.839 423.517L769.977 423.476L770.086 422.859H766.645L766.522 423.476ZM771.512 432.661C774.253 432.661 775.789 430.659 775.789 428.315C775.789 426.341 774.582 425.313 772.841 425.313C770.141 425.313 768.578 427.287 768.578 429.631C768.578 431.591 769.784 432.661 771.512 432.661ZM771.703 431.866C771.128 431.866 770.799 431.249 770.799 430.166C770.799 428.055 771.635 426.122 772.636 426.122C773.225 426.122 773.568 426.698 773.568 427.794C773.568 429.905 772.718 431.866 771.703 431.866ZM784.137 430.604C783.821 431.221 783.534 431.591 783.232 431.591C782.944 431.591 782.958 431.153 783.04 430.687L783.945 425.519H781.889L781.313 428.932C780.833 430.221 780.134 431.454 779.462 431.454C779.037 431.454 779.01 430.879 779.229 430.07L779.805 428C780.339 426.026 779.627 425.313 778.653 425.313C777.447 425.313 776.789 426.382 776.474 427.602L776.94 427.753C777.283 426.766 777.639 426.355 777.886 426.355C778.091 426.355 778.119 426.67 777.982 427.177L777.255 429.892C776.803 431.633 777.392 432.674 778.599 432.674C779.64 432.674 780.531 432.003 781.299 430.481L781.272 430.632C781.011 431.811 781.34 432.674 782.341 432.674C783.122 432.674 784.054 432.181 784.562 430.837L784.137 430.604ZM792.77 430.508C792.332 431.208 791.989 431.591 791.687 431.591C791.413 431.591 791.4 431.208 791.591 430.536L792.291 428.027C792.77 426.245 792.277 425.313 791.194 425.313C789.755 425.313 788.781 426.643 788.027 427.959L788.754 425.354L788.63 425.313L785.642 426.547L785.615 426.698L786.355 427.205L785.436 432.455H787.465L788.137 428.74C788.644 427.822 789.494 426.643 790.097 426.643C790.426 426.643 790.467 427.054 790.275 427.726L789.576 430.275C789.179 431.687 789.604 432.674 790.824 432.674C791.783 432.674 792.578 432.14 793.154 430.728L792.77 430.508ZM798.802 425.519C798.473 425.382 798.09 425.313 797.637 425.313C795.8 425.313 794.388 426.533 794.388 428.137C794.388 428.822 794.69 429.412 795.293 429.782C794.347 430.084 793.854 430.495 793.854 431.18C793.854 431.824 794.32 432.249 795.252 432.441C793.634 432.661 792.743 433.113 792.743 433.826C792.743 434.772 793.895 435.265 795.937 435.265C798.61 435.265 800.269 434.456 800.269 432.853C800.269 431.742 799.337 431.345 798.172 431.18L795.937 430.879C795.54 430.824 795.348 430.742 795.348 430.536C795.348 430.358 795.567 430.193 795.924 430.042C796.184 430.111 796.472 430.152 796.787 430.152C798.638 430.152 800.091 428.85 800.091 427.328C800.091 426.972 799.995 426.615 799.789 426.314H801.27L801.407 425.519H798.802ZM796.938 429.384C796.472 429.384 796.198 428.932 796.198 428.219C796.198 427.068 796.774 426.094 797.486 426.094C797.98 426.094 798.254 426.547 798.254 427.218C798.254 428.356 797.665 429.384 796.938 429.384ZM798.583 433.401C798.583 434.141 797.582 434.498 796.431 434.498C795.197 434.498 794.786 434.155 794.786 433.703C794.786 433.264 795.211 432.825 796.074 432.565L797.623 432.784C798.281 432.88 798.583 433.017 798.583 433.401ZM812.523 431.783C812.029 431.619 811.906 431.125 811.796 430.481L810.426 422.859H808.081L804.133 430.358C803.626 431.317 803.215 431.687 802.845 431.797L802.708 431.838L802.584 432.455H806.011L806.121 431.838L805.874 431.783C804.928 431.55 804.983 430.796 805.381 430.015L805.778 429.247H809.205L809.356 430.193C809.507 431.057 809.205 431.646 808.493 431.783L808.232 431.838L808.123 432.455H812.55L812.66 431.838L812.523 431.783ZM808.369 424.148L809.068 428.439H806.19L808.369 424.148ZM818.588 425.519C818.259 425.382 817.876 425.313 817.423 425.313C815.586 425.313 814.174 426.533 814.174 428.137C814.174 428.822 814.476 429.412 815.079 429.782C814.133 430.084 813.64 430.495 813.64 431.18C813.64 431.824 814.106 432.249 815.038 432.441C813.42 432.661 812.529 433.113 812.529 433.826C812.529 434.772 813.681 435.265 815.723 435.265C818.396 435.265 820.055 434.456 820.055 432.853C820.055 431.742 819.123 431.345 817.958 431.18L815.723 430.879C815.326 430.824 815.134 430.742 815.134 430.536C815.134 430.358 815.353 430.193 815.71 430.042C815.97 430.111 816.258 430.152 816.573 430.152C818.424 430.152 819.877 428.85 819.877 427.328C819.877 426.972 819.781 426.615 819.575 426.314H821.056L821.193 425.519H818.588ZM816.724 429.384C816.258 429.384 815.984 428.932 815.984 428.219C815.984 427.068 816.56 426.094 817.272 426.094C817.766 426.094 818.04 426.547 818.04 427.218C818.04 428.356 817.451 429.384 816.724 429.384ZM818.369 433.401C818.369 434.141 817.368 434.498 816.217 434.498C814.983 434.498 814.572 434.155 814.572 433.703C814.572 433.264 814.997 432.825 815.86 432.565L817.409 432.784C818.067 432.88 818.369 433.017 818.369 433.401ZM824.742 431.413C823.824 431.413 823.371 430.728 823.371 429.563V429.508C826.538 429.097 827.648 428.356 827.648 427.013C827.648 426.067 826.867 425.313 825.427 425.313C822.727 425.313 821.068 427.301 821.068 429.686C821.068 431.55 822.165 432.674 823.851 432.674C825.619 432.674 826.716 431.591 827.319 430.111L826.935 429.933C826.442 430.769 825.702 431.413 824.742 431.413ZM825.167 426.094C825.482 426.094 825.647 426.314 825.647 426.684C825.647 427.685 824.865 428.521 823.399 428.973C823.549 427.301 824.317 426.094 825.167 426.094ZM780.915 448.878C780.421 449.659 779.996 449.81 779.174 449.81H776.967C779.846 448.809 781.765 447.26 781.765 445.684C781.765 444.436 780.791 443.847 779.544 443.847C777.392 443.847 775.363 445.108 775.363 446.273C775.363 446.726 775.692 446.972 776.117 446.972C776.802 446.972 777.57 446.424 777.68 444.848C777.83 444.82 777.995 444.807 778.159 444.807C778.941 444.807 779.38 445.204 779.38 445.972C779.38 447.411 777.666 448.919 775.075 450.029L774.774 451.455H781.148L781.683 448.521H781.134L780.915 448.878ZM786.215 451.661C789.066 451.661 790.944 449.591 790.944 446.959C790.944 444.93 789.601 443.847 787.599 443.847C784.789 443.847 782.87 445.917 782.87 448.521C782.87 450.537 784.186 451.661 786.215 451.661ZM786.379 450.852C785.584 450.852 785.173 450.153 785.173 448.864C785.173 446.602 786.16 444.656 787.435 444.656C788.23 444.656 788.655 445.41 788.655 446.657C788.655 448.919 787.599 450.852 786.379 450.852ZM792.115 447.329L791.964 448.234H796.652L796.817 447.329H792.115ZM801.538 448.631C803.306 448.206 804.581 447.014 804.581 445.698C804.581 444.491 803.635 443.847 802.155 443.847C800.263 443.847 798.124 444.875 798.124 446.246C798.124 446.685 798.385 446.945 798.837 446.945C799.536 446.945 800.249 446.273 800.332 444.875C800.537 444.834 800.77 444.82 801.017 444.82C801.757 444.82 802.196 445.204 802.196 445.999C802.196 447.397 801.291 448.33 799.907 448.33H799.386L799.207 449.179H799.865C800.976 449.179 801.812 449.618 801.812 450.715C801.812 452.072 800.798 453.018 799.345 453.045C799.194 451.578 798.755 450.92 797.987 450.92C797.398 450.92 797.055 451.318 797.055 451.853C797.055 452.977 798.399 453.827 800.003 453.827C802.223 453.827 804.115 452.593 804.115 450.797C804.115 449.55 803.183 448.823 801.538 448.631ZM812.374 444.053H807.055L805.794 449.687H806.698C807.137 449.317 807.699 448.892 808.453 448.892C809.207 448.892 809.618 449.358 809.618 450.221C809.618 451.894 808.494 453.032 807.014 453.032H806.931C806.89 451.359 806.315 450.824 805.725 450.824C805.149 450.824 804.779 451.249 804.779 451.798C804.779 452.963 806.027 453.827 807.795 453.827C810.153 453.827 811.962 452.36 811.962 450.071C811.962 448.645 811.058 447.768 809.618 447.768C808.467 447.768 807.535 448.247 806.89 448.823L807.589 445.917L811.99 445.958L812.374 444.053Z" fill="#EEEEEE"/>
<circle cx="352.614" cy="300.432" r="6.20749" fill="#EEEEEE" stroke="#EEEEEE" stroke-width="2.03489"/>
<circle cx="644.018" cy="608.698" r="6.20749" fill="#EEEEEE" stroke="#EEEEEE" stroke-width="2.03489"/>
<circle cx="305.252" cy="233.801" r="6.20749" fill="#EEEEEE" stroke="#EEEEEE" stroke-width="2.03489"/>
<circle cx="591.282" cy="541.95" r="6.20749" fill="#EEEEEE" stroke="#EEEEEE" stroke-width="2.03489"/>
<circle cx="655" cy="302.834" r="6.20749" fill="#EEEEEE" stroke="#EEEEEE" stroke-width="2.03489"/>
<circle cx="305.252" cy="549.287" r="6.20749" fill="#EEEEEE" stroke="#EEEEEE" stroke-width="2.03489"/>
<circle cx="604.225" cy="135.225" r="6.20749" fill="#EEEEEE" stroke="#EEEEEE" stroke-width="2.03489"/>
<circle cx="598.264" cy="293.205" r="6.20749" fill="#EEEEEE" stroke="#EEEEEE" stroke-width="2.03489"/>
<circle cx="352.225" cy="780.225" r="6.20749" fill="#EEEEEE" stroke="#EEEEEE" stroke-width="2.03489"/>
<circle cx="226.578" cy="314.879" r="6.20749" fill="#EEEEEE" stroke="#EEEEEE" stroke-width="2.03489"/>
<circle cx="571.774" cy="664.889" r="6.20749" fill="#EEEEEE" stroke="#EEEEEE" stroke-width="2.03489"/>
<circle cx="611.104" cy="248.248" r="6.20749" fill="#EEEEEE" stroke="#EEEEEE" stroke-width="2.03489"/>
<circle cx="446.343" cy="441.491" r="73.9954" fill="#EEEEEE"/>
<path d="M431.676 423.266L431.914 423.334C433.138 423.657 432.815 424.558 432.322 425.561L428.684 432.871L427.443 425.306C427.256 424.201 427.698 423.487 428.531 423.334L428.854 423.266L428.99 422.502H423.517L423.381 423.266L423.534 423.334C424.265 423.589 424.367 424.422 424.452 424.949L426.134 434.4H429.041L433.988 425.102C434.718 423.725 435.092 423.487 435.585 423.317L435.721 423.266L435.857 422.502H431.812L431.676 423.266ZM443.901 431.97C443.374 432.905 442.949 433.329 442.592 433.329C442.286 433.329 442.269 432.973 442.405 432.208L443.527 425.799H443.051L441.317 426.802C440.926 426.02 440.297 425.544 439.243 425.544C436.626 425.544 434.45 428.23 434.45 431.46C434.45 433.618 435.606 434.672 436.983 434.672C438.376 434.672 439.447 433.754 440.263 432.072C439.923 433.635 440.348 434.672 441.521 434.672C442.507 434.672 443.646 434.06 444.411 432.276L443.901 431.97ZM438.053 433.363C437.493 433.363 437.289 432.701 437.289 431.664C437.289 428.978 438.461 426.666 439.787 426.666C440.229 426.666 440.535 426.938 440.739 427.448L440.229 430.27C439.583 432.106 438.716 433.363 438.053 433.363ZM449.508 432.004C448.981 432.82 448.59 433.329 448.199 433.329C447.842 433.329 447.893 432.82 447.995 432.208L449.984 420.768L449.831 420.717L446.21 422.213L446.176 422.4L447.06 423.063L445.581 431.511C445.207 433.618 445.649 434.672 447.145 434.672C448.148 434.672 449.253 434.009 450.018 432.31L449.508 432.004ZM460.166 432.106C459.776 432.871 459.419 433.329 459.045 433.329C458.688 433.329 458.705 432.786 458.807 432.208L459.928 425.799H457.379L456.665 430.032C456.07 431.63 455.203 433.16 454.37 433.16C453.843 433.16 453.809 432.446 454.081 431.443L454.795 428.876C455.458 426.428 454.574 425.544 453.367 425.544C451.871 425.544 451.055 426.87 450.664 428.383L451.242 428.57C451.667 427.346 452.109 426.836 452.415 426.836C452.67 426.836 452.704 427.227 452.534 427.856L451.633 431.222C451.072 433.38 451.803 434.672 453.299 434.672C454.591 434.672 455.696 433.839 456.648 431.953L456.614 432.14C456.291 433.601 456.699 434.672 457.94 434.672C458.909 434.672 460.064 434.06 460.693 432.395L460.166 432.106ZM466.096 433.109C464.957 433.109 464.396 432.259 464.396 430.814V430.746C468.322 430.236 469.699 429.318 469.699 427.652C469.699 426.479 468.73 425.544 466.946 425.544C463.597 425.544 461.54 428.009 461.54 430.967C461.54 433.279 462.9 434.672 464.991 434.672C467.184 434.672 468.543 433.329 469.291 431.494L468.815 431.273C468.203 432.31 467.286 433.109 466.096 433.109ZM466.623 426.513C467.014 426.513 467.218 426.785 467.218 427.244C467.218 428.485 466.249 429.522 464.43 430.083C464.617 428.009 465.569 426.513 466.623 426.513ZM429.461 456.004C428.917 456.837 428.543 457.329 428.152 457.329C427.813 457.329 427.83 456.871 427.949 456.208L429.937 444.768L429.801 444.717L426.13 446.213L426.079 446.4L426.997 447.113L426.453 450.224C426.062 449.799 425.535 449.544 424.804 449.544C422.118 449.544 419.891 452.23 419.891 455.46C419.891 457.618 421.081 458.672 422.458 458.672C423.835 458.672 424.855 457.856 425.688 456.361C425.467 457.686 425.858 458.672 427.099 458.672C428.118 458.672 429.189 457.992 429.971 456.31L429.461 456.004ZM423.529 457.346C422.985 457.346 422.747 456.701 422.747 455.562C422.747 452.995 423.92 450.683 425.28 450.683C425.722 450.683 426.028 450.938 426.249 451.431L425.739 454.321C425.127 456.072 424.243 457.346 423.529 457.346ZM437.309 449.544C436.204 449.544 435.014 451.074 433.552 455.562L435.065 449.646L434.895 449.578L431.224 451.074L431.19 451.261L432.074 451.89L431.003 458.4H433.535L433.841 456.531C434.47 454.763 435.116 453.233 435.83 452.111C436.969 452.536 438.125 451.89 438.125 450.479C438.125 449.867 437.802 449.544 437.309 449.544ZM441.209 448.49C442.28 448.49 443.113 447.657 443.113 446.604C443.113 445.873 442.603 445.278 441.804 445.278C440.699 445.278 439.917 446.094 439.917 447.147C439.917 447.912 440.41 448.49 441.209 448.49ZM442.654 456.14C442.229 456.922 441.838 457.329 441.515 457.329C441.158 457.329 441.209 456.82 441.311 456.208L442.433 449.612L442.297 449.578L438.625 451.074L438.591 451.261L439.526 451.89L438.846 455.749C438.523 457.584 439.05 458.672 440.359 458.672C441.498 458.672 442.467 458.111 443.164 456.446L442.654 456.14ZM451.37 449.544C450.606 449.544 450.096 450.02 450.096 450.87C450.096 451.703 450.555 452.519 451.252 453.369C450.589 455.97 449.008 457.346 448.192 457.346C447.444 457.346 447.223 456.684 447.631 455.069L448.192 452.842C448.804 450.411 447.886 449.544 446.662 449.544C445.098 449.544 444.367 450.853 443.993 452.383L444.588 452.553C444.979 451.431 445.353 450.904 445.676 450.904C445.948 450.904 446.033 451.261 445.795 452.145L445.149 454.695C444.452 457.414 445.506 458.655 447.257 458.655C451.048 458.655 452.73 453.471 452.73 451.244C452.73 450.088 452.203 449.544 451.37 449.544ZM458.128 457.109C456.989 457.109 456.428 456.259 456.428 454.814V454.746C460.355 454.236 461.731 453.318 461.731 451.652C461.731 450.479 460.762 449.544 458.978 449.544C455.629 449.544 453.572 452.009 453.572 454.967C453.572 457.279 454.932 458.672 457.023 458.672C459.216 458.672 460.575 457.329 461.323 455.494L460.847 455.273C460.236 456.31 459.318 457.109 458.128 457.109ZM458.655 450.513C459.046 450.513 459.25 450.785 459.25 451.244C459.25 452.485 458.281 453.522 456.462 454.083C456.649 452.009 457.601 450.513 458.655 450.513ZM471.802 455.987C471.258 456.854 470.833 457.329 470.459 457.329C470.119 457.329 470.102 456.854 470.34 456.021L471.207 452.91C471.802 450.7 471.19 449.544 469.847 449.544C468.062 449.544 466.855 451.193 465.92 452.825L466.821 449.595L466.668 449.544L462.963 451.074L462.929 451.261L463.847 451.89L462.708 458.4H465.223L466.056 453.794C466.685 452.655 467.739 451.193 468.487 451.193C468.895 451.193 468.946 451.703 468.708 452.536L467.841 455.698C467.348 457.448 467.875 458.672 469.388 458.672C470.578 458.672 471.564 458.009 472.278 456.259L471.802 455.987Z" fill="#282828"/>
<path d="M673.66 416.334L736.675 451.989" stroke="#F3A8BE" stroke-width="5.94716" stroke-miterlimit="10"/>
<path d="M668.965 434.465L741.365 433.837" stroke="#F3A8BE" stroke-width="5.94716" stroke-miterlimit="10"/>
<path d="M673.971 452.541L736.358 415.795" stroke="#F3A8BE" stroke-width="5.94716" stroke-miterlimit="10"/>
<path d="M687.336 465.668L722.991 402.649" stroke="#F3A8BE" stroke-width="5.94716" stroke-miterlimit="10"/>
<path d="M705.482 470.365L704.852 397.961" stroke="#F3A8BE" stroke-width="5.94716" stroke-miterlimit="10"/>
<path d="M723.538 465.355L686.793 402.969" stroke="#F3A8BE" stroke-width="5.94716" stroke-miterlimit="10"/>
<path d="M172.66 414.334L235.675 449.989" stroke="#ED764A" stroke-width="5.94716" stroke-miterlimit="10"/>
<path d="M167.965 432.465L240.365 431.837" stroke="#ED764A" stroke-width="5.94716" stroke-miterlimit="10"/>
<path d="M172.971 450.541L235.358 413.795" stroke="#ED764A" stroke-width="5.94716" stroke-miterlimit="10"/>
<path d="M186.336 463.668L221.991 400.649" stroke="#ED764A" stroke-width="5.94716" stroke-miterlimit="10"/>
<path d="M204.482 468.365L203.852 395.961" stroke="#ED764A" stroke-width="5.94716" stroke-miterlimit="10"/>
<path d="M222.538 463.355L185.793 400.969" stroke="#ED764A" stroke-width="5.94716" stroke-miterlimit="10"/>
<path d="M488.658 193.329C460.965 193.329 443.329 210.955 443.329 238.658C443.329 210.955 425.703 193.329 398 193.329C425.703 193.329 443.329 175.703 443.329 148C443.339 175.703 460.965 193.329 488.658 193.329Z" fill="#8790C4"/>
<path d="M440.146 705.003C517.439 705.003 441.992 780.462 441.992 703.157C441.992 780.462 366.545 705.003 443.838 705.003C366.545 705.003 441.992 629.545 441.992 706.849C442.065 629.53 517.439 705.003 440.146 705.003Z" fill="#F0B35E"/>
</svg>
