<svg width="594" height="892" viewBox="0 0 594 892" fill="none" xmlns="http://www.w3.org/2000/svg">
<circle opacity="0.3" cx="148.004" cy="445.999" r="174.593" stroke="black" stroke-width="1.7625" stroke-linecap="round" stroke-linejoin="round" stroke-dasharray="6.17 5.29"/>
<circle opacity="0.5" cx="148.004" cy="446.003" r="253.441" stroke="black" stroke-width="1.7625" stroke-linecap="round" stroke-linejoin="round" stroke-dasharray="6.17 5.29"/>
<circle opacity="0.3" cx="148" cy="446" r="347.656" stroke="black" stroke-width="1.7625" stroke-linecap="round" stroke-linejoin="round" stroke-dasharray="6.17 5.29"/>
<circle opacity="0.3" cx="148" cy="446" r="445" stroke="black" stroke-width="1.7625" stroke-linecap="round" stroke-linejoin="round" stroke-dasharray="6.17 5.29"/>
<circle opacity="0.3" cx="148.206" cy="439.788" r="100.82" stroke="black" stroke-width="1.7625" stroke-linecap="round" stroke-linejoin="round" stroke-dasharray="6.17 5.29"/>
<path d="M366.425 663.185H368.042V672.768H366.288L360.859 665.776V672.768H359.241V663.185H360.859L366.425 670.341V663.185ZM376.39 672.768H374.991V671.794C374.388 672.516 373.58 672.877 372.565 672.877C371.807 672.877 371.176 672.662 370.673 672.233C370.18 671.803 369.933 671.232 369.933 670.519C369.933 669.797 370.198 669.258 370.728 668.902C371.258 668.545 371.976 668.367 372.88 668.367H374.868V668.093C374.868 667.124 374.329 666.64 373.251 666.64C372.574 666.64 371.871 666.887 371.139 667.38L370.454 666.421C371.341 665.717 372.346 665.365 373.47 665.365C374.329 665.365 375.028 665.584 375.567 666.023C376.116 666.453 376.39 667.133 376.39 668.066V672.768ZM374.854 670.053V669.436H373.127C372.021 669.436 371.468 669.784 371.468 670.478C371.468 670.835 371.606 671.109 371.88 671.301C372.154 671.484 372.533 671.575 373.017 671.575C373.511 671.575 373.941 671.438 374.306 671.164C374.672 670.89 374.854 670.519 374.854 670.053ZM380.338 666.708V670.41C380.338 670.757 380.43 671.036 380.613 671.246C380.795 671.447 381.051 671.548 381.38 671.548C381.709 671.548 382.025 671.388 382.326 671.068L382.957 672.151C382.418 672.635 381.819 672.877 381.161 672.877C380.512 672.877 379.955 672.653 379.489 672.206C379.032 671.749 378.803 671.136 378.803 670.369V666.708H377.885V665.475H378.803V663.185H380.338V665.475H382.258V666.708H380.338ZM389.276 669.423V665.475H390.811V672.768H389.276V671.438C389.029 671.886 388.686 672.238 388.248 672.493C387.818 672.749 387.352 672.877 386.85 672.877C386.027 672.877 385.36 672.626 384.848 672.123C384.345 671.621 384.094 670.894 384.094 669.944V665.475H385.629V669.478C385.629 670.821 386.187 671.493 387.302 671.493C387.832 671.493 388.293 671.319 388.686 670.972C389.079 670.615 389.276 670.099 389.276 669.423ZM396.863 666.914C396.105 666.914 395.534 667.161 395.15 667.654C394.766 668.148 394.574 668.81 394.574 669.642V672.768H393.039V665.475H394.574V666.942C394.821 666.485 395.154 666.11 395.575 665.817C396.004 665.525 396.457 665.374 396.932 665.365L396.945 666.914C396.918 666.914 396.891 666.914 396.863 666.914ZM405.273 669.793H399.556C399.593 670.323 399.835 670.752 400.283 671.081C400.731 671.401 401.243 671.561 401.818 671.561C402.732 671.561 403.427 671.273 403.902 670.698L404.779 671.657C403.993 672.471 402.97 672.877 401.709 672.877C400.685 672.877 399.812 672.539 399.09 671.863C398.377 671.177 398.021 670.264 398.021 669.121C398.021 667.97 398.387 667.056 399.118 666.379C399.849 665.703 400.708 665.365 401.695 665.365C402.691 665.365 403.536 665.667 404.231 666.27C404.925 666.864 405.273 667.686 405.273 668.737V669.793ZM399.556 668.587H403.737C403.737 667.974 403.546 667.504 403.162 667.175C402.778 666.846 402.303 666.681 401.736 666.681C401.179 666.681 400.676 666.855 400.228 667.202C399.78 667.54 399.556 668.002 399.556 668.587ZM365.825 682.185C367.543 682.185 368.863 682.606 369.786 683.447C370.709 684.278 371.171 685.439 371.171 686.929C371.171 688.418 370.723 689.597 369.828 690.465C368.932 691.333 367.561 691.768 365.715 691.768H362.535V682.185H365.825ZM369.54 686.97C369.54 684.776 368.283 683.68 365.77 683.68H364.152V690.246H365.948C367.109 690.246 367.995 689.972 368.607 689.423C369.229 688.866 369.54 688.048 369.54 686.97ZM376.863 685.914C376.104 685.914 375.533 686.161 375.149 686.654C374.766 687.148 374.574 687.81 374.574 688.642V691.768H373.038V684.475H374.574V685.942C374.82 685.485 375.154 685.11 375.574 684.817C376.004 684.525 376.456 684.374 376.932 684.365L376.945 685.914C376.918 685.914 376.89 685.914 376.863 685.914ZM380.022 691.768H378.487V684.475H380.022V691.768ZM378.583 683.022C378.391 682.83 378.295 682.601 378.295 682.336C378.295 682.071 378.391 681.843 378.583 681.651C378.775 681.459 379.003 681.363 379.268 681.363C379.533 681.363 379.762 681.459 379.954 681.651C380.146 681.843 380.242 682.071 380.242 682.336C380.242 682.601 380.146 682.83 379.954 683.022C379.762 683.214 379.533 683.31 379.268 683.31C379.003 683.31 378.775 683.214 378.583 683.022ZM384.182 691.768L381.248 684.475H382.838L385.059 689.985L387.28 684.475H388.87L385.936 691.768H384.182ZM396.879 688.793H391.163C391.199 689.323 391.441 689.752 391.889 690.081C392.337 690.401 392.849 690.561 393.425 690.561C394.338 690.561 395.033 690.273 395.508 689.698L396.386 690.657C395.6 691.471 394.576 691.877 393.315 691.877C392.291 691.877 391.419 691.539 390.697 690.863C389.984 690.177 389.627 689.264 389.627 688.121C389.627 686.97 389.993 686.056 390.724 685.379C391.455 684.703 392.314 684.365 393.301 684.365C394.297 684.365 395.143 684.667 395.837 685.27C396.532 685.864 396.879 686.686 396.879 687.737V688.793ZM391.163 687.587H395.344C395.344 686.974 395.152 686.504 394.768 686.175C394.384 685.846 393.909 685.681 393.342 685.681C392.785 685.681 392.282 685.855 391.834 686.202C391.387 686.54 391.163 687.002 391.163 687.587ZM400.103 687.82V691.768H398.567V684.475H400.103V685.804C400.35 685.357 400.688 685.005 401.117 684.749C401.556 684.493 402.027 684.365 402.529 684.365C403.352 684.365 404.014 684.616 404.517 685.119C405.029 685.622 405.285 686.348 405.285 687.299V691.768H403.749V687.765C403.749 686.421 403.192 685.75 402.077 685.75C401.547 685.75 401.085 685.928 400.692 686.284C400.299 686.632 400.103 687.143 400.103 687.82Z" fill="black"/>
<path d="M372.687 226.349V227.87H367.574V230.406H372.166V231.846H367.574V234.409H372.851V235.931H365.956V226.349H372.687ZM377.941 236.04C376.927 236.04 376.054 235.698 375.323 235.012C374.592 234.318 374.226 233.413 374.226 232.298C374.226 231.183 374.605 230.278 375.364 229.584C376.132 228.88 377.064 228.528 378.16 228.528C379.257 228.528 380.185 228.907 380.943 229.666L380.038 230.776C379.408 230.228 378.773 229.954 378.133 229.954C377.493 229.954 376.936 230.169 376.461 230.598C375.995 231.019 375.761 231.567 375.761 232.243C375.761 232.91 375.995 233.477 376.461 233.943C376.927 234.409 377.498 234.642 378.174 234.642C378.86 234.642 379.504 234.331 380.107 233.71L381.012 234.697C380.125 235.593 379.102 236.04 377.941 236.04ZM384.157 234.011C384.596 234.45 385.148 234.669 385.816 234.669C386.483 234.669 387.031 234.45 387.461 234.011C387.899 233.564 388.119 232.988 388.119 232.284C388.119 231.581 387.899 231.009 387.461 230.571C387.031 230.123 386.483 229.899 385.816 229.899C385.148 229.899 384.596 230.123 384.157 230.571C383.727 231.009 383.513 231.581 383.513 232.284C383.513 232.988 383.727 233.564 384.157 234.011ZM388.557 234.957C387.826 235.679 386.912 236.04 385.816 236.04C384.719 236.04 383.805 235.679 383.074 234.957C382.343 234.226 381.977 233.335 381.977 232.284C381.977 231.233 382.343 230.347 383.074 229.625C383.805 228.894 384.719 228.528 385.816 228.528C386.912 228.528 387.826 228.894 388.557 229.625C389.288 230.347 389.654 231.233 389.654 232.284C389.654 233.335 389.288 234.226 388.557 234.957ZM391.276 232.558V231.119H395.827V232.558H391.276ZM402.511 234.464C403.069 234.464 403.549 234.372 403.951 234.19C404.353 233.998 404.773 233.696 405.212 233.285L406.254 234.354C405.239 235.478 404.006 236.04 402.552 236.04C401.109 236.04 399.907 235.574 398.947 234.642C397.997 233.71 397.522 232.531 397.522 231.105C397.522 229.68 398.006 228.492 398.975 227.541C399.952 226.591 401.182 226.115 402.662 226.115C404.152 226.115 405.395 226.664 406.391 227.76L405.363 228.885C404.906 228.446 404.472 228.14 404.06 227.966C403.658 227.792 403.183 227.706 402.635 227.706C401.666 227.706 400.853 228.021 400.195 228.652C399.537 229.273 399.208 230.073 399.208 231.05C399.208 232.019 399.532 232.833 400.181 233.491C400.839 234.139 401.616 234.464 402.511 234.464ZM409.512 234.011C409.951 234.45 410.503 234.669 411.171 234.669C411.838 234.669 412.386 234.45 412.816 234.011C413.254 233.564 413.474 232.988 413.474 232.284C413.474 231.581 413.254 231.009 412.816 230.571C412.386 230.123 411.838 229.899 411.171 229.899C410.503 229.899 409.951 230.123 409.512 230.571C409.082 231.009 408.868 231.581 408.868 232.284C408.868 232.988 409.082 233.564 409.512 234.011ZM413.912 234.957C413.181 235.679 412.267 236.04 411.171 236.04C410.074 236.04 409.16 235.679 408.429 234.957C407.698 234.226 407.332 233.335 407.332 232.284C407.332 231.233 407.698 230.347 408.429 229.625C409.16 228.894 410.074 228.528 411.171 228.528C412.267 228.528 413.181 228.894 413.912 229.625C414.643 230.347 415.009 231.233 415.009 232.284C415.009 233.335 414.643 234.226 413.912 234.957ZM418.29 231.983V235.931H416.755V228.638H418.29V229.968C418.537 229.52 418.875 229.168 419.304 228.912C419.743 228.656 420.214 228.528 420.716 228.528C421.539 228.528 422.201 228.779 422.704 229.282C423.216 229.785 423.472 230.511 423.472 231.462V235.931H421.936V231.928C421.936 230.584 421.379 229.913 420.264 229.913C419.734 229.913 419.272 230.091 418.879 230.447C418.486 230.795 418.29 231.306 418.29 231.983ZM430.812 233.751C430.812 234.446 430.561 235.003 430.058 235.423C429.556 235.835 428.911 236.04 428.125 236.04C427.595 236.04 427.043 235.944 426.467 235.752C425.9 235.561 425.398 235.291 424.959 234.944L425.699 233.751C426.549 234.391 427.372 234.711 428.167 234.711C428.514 234.711 428.788 234.633 428.989 234.478C429.19 234.313 429.291 234.107 429.291 233.861C429.291 233.495 428.806 233.166 427.838 232.874C427.764 232.846 427.71 232.828 427.673 232.819C426.156 232.408 425.398 231.722 425.398 230.763C425.398 230.086 425.658 229.547 426.179 229.145C426.709 228.734 427.394 228.528 428.235 228.528C429.076 228.528 429.871 228.775 430.62 229.268L430.045 230.406C429.451 230.013 428.806 229.817 428.112 229.817C427.746 229.817 427.449 229.885 427.221 230.022C426.992 230.15 426.878 230.347 426.878 230.612C426.878 230.849 426.997 231.023 427.234 231.133C427.399 231.215 427.627 231.293 427.92 231.366C428.221 231.439 428.486 231.512 428.715 231.585C428.943 231.658 429.163 231.74 429.373 231.832C429.592 231.923 429.825 232.051 430.072 232.216C430.566 232.545 430.812 233.056 430.812 233.751ZM435.787 236.04C434.772 236.04 433.899 235.698 433.168 235.012C432.437 234.318 432.072 233.413 432.072 232.298C432.072 231.183 432.451 230.278 433.209 229.584C433.977 228.88 434.909 228.528 436.006 228.528C437.103 228.528 438.03 228.907 438.789 229.666L437.884 230.776C437.253 230.228 436.618 229.954 435.978 229.954C435.339 229.954 434.781 230.169 434.306 230.598C433.84 231.019 433.607 231.567 433.607 232.243C433.607 232.91 433.84 233.477 434.306 233.943C434.772 234.409 435.343 234.642 436.02 234.642C436.705 234.642 437.349 234.331 437.952 233.71L438.857 234.697C437.971 235.593 436.947 236.04 435.787 236.04ZM441.985 235.931H440.45V228.638H441.985V235.931ZM440.546 227.185C440.354 226.993 440.258 226.764 440.258 226.499C440.258 226.234 440.354 226.006 440.546 225.814C440.738 225.622 440.966 225.526 441.231 225.526C441.496 225.526 441.725 225.622 441.916 225.814C442.108 226.006 442.204 226.234 442.204 226.499C442.204 226.764 442.108 226.993 441.916 227.185C441.725 227.377 441.496 227.473 441.231 227.473C440.966 227.473 440.738 227.377 440.546 227.185ZM445.911 234.011C446.35 234.45 446.903 234.669 447.57 234.669C448.237 234.669 448.785 234.45 449.215 234.011C449.654 233.564 449.873 232.988 449.873 232.284C449.873 231.581 449.654 231.009 449.215 230.571C448.785 230.123 448.237 229.899 447.57 229.899C446.903 229.899 446.35 230.123 445.911 230.571C445.482 231.009 445.267 231.581 445.267 232.284C445.267 232.988 445.482 233.564 445.911 234.011ZM450.312 234.957C449.581 235.679 448.667 236.04 447.57 236.04C446.473 236.04 445.559 235.679 444.828 234.957C444.097 234.226 443.732 233.335 443.732 232.284C443.732 231.233 444.097 230.347 444.828 229.625C445.559 228.894 446.473 228.528 447.57 228.528C448.667 228.528 449.581 228.894 450.312 229.625C451.043 230.347 451.408 231.233 451.408 232.284C451.408 233.335 451.043 234.226 450.312 234.957ZM458.254 232.586V228.638H459.789V235.931H458.254V234.601C458.007 235.049 457.664 235.401 457.225 235.656C456.796 235.912 456.33 236.04 455.827 236.04C455.005 236.04 454.338 235.789 453.826 235.286C453.323 234.784 453.072 234.057 453.072 233.107V228.638H454.607V232.641C454.607 233.984 455.165 234.656 456.28 234.656C456.81 234.656 457.271 234.482 457.664 234.135C458.057 233.778 458.254 233.262 458.254 232.586ZM467.212 233.751C467.212 234.446 466.96 235.003 466.458 235.423C465.955 235.835 465.311 236.04 464.525 236.04C463.995 236.04 463.442 235.944 462.866 235.752C462.3 235.561 461.797 235.291 461.358 234.944L462.098 233.751C462.948 234.391 463.771 234.711 464.566 234.711C464.913 234.711 465.187 234.633 465.388 234.478C465.59 234.313 465.69 234.107 465.69 233.861C465.69 233.495 465.206 233.166 464.237 232.874C464.164 232.846 464.109 232.828 464.072 232.819C462.555 232.408 461.797 231.722 461.797 230.763C461.797 230.086 462.057 229.547 462.578 229.145C463.108 228.734 463.794 228.528 464.635 228.528C465.475 228.528 466.27 228.775 467.02 229.268L466.444 230.406C465.85 230.013 465.206 229.817 464.511 229.817C464.146 229.817 463.849 229.885 463.62 230.022C463.392 230.15 463.277 230.347 463.277 230.612C463.277 230.849 463.396 231.023 463.634 231.133C463.798 231.215 464.027 231.293 464.319 231.366C464.621 231.439 464.886 231.512 465.114 231.585C465.343 231.658 465.562 231.74 465.772 231.832C465.992 231.923 466.225 232.051 466.471 232.216C466.965 232.545 467.212 233.056 467.212 233.751Z" fill="black"/>
<path d="M99.5648 810.298C100.799 810.298 101.731 810.942 101.813 812.518L101.827 812.875H102.677L103.252 809.571H102.485L102.005 810.558C101.484 809.763 100.607 809.352 99.5099 809.352C97.3989 809.352 96.0692 810.49 96.0692 812.244C96.0692 813.752 96.9602 814.657 98.6189 815.219C100.127 815.726 100.703 816.083 100.703 816.946C100.703 817.92 99.9212 818.44 98.7697 818.44C97.4948 818.44 96.4667 817.673 96.4256 815.932L96.4119 815.534H95.5757L94.9314 819.167H95.699L96.2474 818.07C96.7683 818.907 97.7142 819.386 98.9068 819.386C101.086 819.386 102.635 818.221 102.635 816.137C102.635 814.424 101.511 813.656 99.9623 813.149C98.6052 812.697 97.9609 812.299 97.9609 811.49C97.9609 810.723 98.5367 810.298 99.5648 810.298ZM109.472 813.3C109.815 813.588 110.199 813.752 110.596 813.752C111.131 813.752 111.487 813.355 111.487 812.875C111.487 812.34 111.09 812.025 110.446 812.025C109.555 812.025 108.814 812.532 107.841 813.711L106.566 815.274L107.8 808.173L107.677 808.132L104.729 809.338L104.702 809.489L105.401 810.27L103.838 819.167H105.881L106.278 816.864L106.936 816.083L107.073 816.987C107.293 818.715 107.8 819.386 108.869 819.386C109.842 819.386 110.638 818.728 111.158 817.412L110.747 817.193C110.405 817.769 110.076 818.153 109.705 818.153C109.418 818.153 109.212 817.933 109.102 817.275L108.54 814.177C108.869 813.807 109.171 813.492 109.472 813.3ZM114.175 811.175C115.039 811.175 115.71 810.503 115.71 809.653C115.71 809.064 115.299 808.584 114.655 808.584C113.764 808.584 113.133 809.242 113.133 810.092C113.133 810.709 113.531 811.175 114.175 811.175ZM115.34 817.344C114.998 817.974 114.682 818.303 114.422 818.303C114.134 818.303 114.175 817.892 114.257 817.399L115.162 812.08L115.052 812.052L112.091 813.259L112.064 813.409L112.818 813.917L112.27 817.028C112.009 818.509 112.434 819.386 113.49 819.386C114.408 819.386 115.189 818.934 115.752 817.591L115.34 817.344ZM123.974 817.22C123.535 817.92 123.192 818.303 122.891 818.303C122.617 818.303 122.603 817.92 122.795 817.248L123.494 814.739C123.974 812.957 123.48 812.025 122.397 812.025C120.958 812.025 119.985 813.355 119.231 814.671L119.957 812.066L119.834 812.025L116.845 813.259L116.818 813.409L117.558 813.917L116.64 819.167H118.669L119.34 815.452C119.848 814.534 120.697 813.355 121.301 813.355C121.63 813.355 121.671 813.766 121.479 814.438L120.78 816.987C120.382 818.399 120.807 819.386 122.027 819.386C122.987 819.386 123.782 818.852 124.358 817.44L123.974 817.22ZM129.334 812.847C129.444 812.847 129.54 812.861 129.636 812.875C129.69 813.903 130.047 814.602 130.76 814.602C131.267 814.602 131.61 814.246 131.61 813.711C131.61 812.683 130.65 812.025 129.252 812.025C126.647 812.025 124.988 814.067 124.988 816.412C124.988 818.317 126.085 819.386 127.785 819.386C129.444 819.386 130.609 818.29 131.102 816.686L130.705 816.535C130.184 817.563 129.471 818.111 128.607 818.111C127.771 818.111 127.333 817.467 127.333 816.302C127.333 814.355 128.169 812.847 129.334 812.847ZM139.613 817.207C139.188 817.961 138.845 818.303 138.557 818.303C138.31 818.303 138.297 818.015 138.406 817.399L139.311 812.231H138.927L137.529 813.039C137.214 812.409 136.707 812.025 135.857 812.025C133.746 812.025 131.991 814.191 131.991 816.795C131.991 818.536 132.923 819.386 134.033 819.386C135.158 819.386 136.021 818.646 136.679 817.289C136.405 818.55 136.748 819.386 137.694 819.386C138.489 819.386 139.407 818.893 140.024 817.453L139.613 817.207ZM134.897 818.331C134.445 818.331 134.28 817.796 134.28 816.96C134.28 814.794 135.226 812.93 136.295 812.93C136.652 812.93 136.898 813.149 137.063 813.56L136.652 815.836C136.131 817.316 135.432 818.331 134.897 818.331ZM145.917 812.025C145.026 812.025 144.066 813.259 142.887 816.878L144.107 812.107L143.97 812.052L141.009 813.259L140.982 813.409L141.694 813.917L140.831 819.167H142.873L143.12 817.659C143.627 816.233 144.148 815 144.724 814.095C145.642 814.438 146.575 813.917 146.575 812.779C146.575 812.285 146.314 812.025 145.917 812.025ZM150.189 818.125C149.271 818.125 148.818 817.44 148.818 816.275V816.22C151.985 815.808 153.095 815.068 153.095 813.725C153.095 812.779 152.314 812.025 150.874 812.025C148.174 812.025 146.515 814.013 146.515 816.398C146.515 818.262 147.612 819.386 149.298 819.386C151.066 819.386 152.163 818.303 152.766 816.823L152.382 816.645C151.889 817.481 151.149 818.125 150.189 818.125ZM150.614 812.806C150.929 812.806 151.094 813.026 151.094 813.396C151.094 814.396 150.312 815.233 148.846 815.685C148.996 814.013 149.764 812.806 150.614 812.806ZM163.028 815.973C162.261 817.741 161.562 818.303 159.999 818.303H159.135L160.287 811.723C160.479 810.599 160.767 810.325 161.617 810.229L161.877 810.188L161.987 809.571H157.257L157.148 810.188L157.394 810.229C158.08 810.353 158.258 810.572 158.052 811.723L157.134 817.015C156.928 818.194 156.64 818.399 155.955 818.509L155.695 818.55L155.571 819.167H163.193L163.933 815.617H163.179L163.028 815.973ZM167.481 819.373C170.223 819.373 171.758 817.371 171.758 815.027C171.758 813.053 170.552 812.025 168.811 812.025C166.111 812.025 164.548 813.999 164.548 816.343C164.548 818.303 165.754 819.373 167.481 819.373ZM167.673 818.578C167.098 818.578 166.769 817.961 166.769 816.878C166.769 814.767 167.605 812.834 168.606 812.834C169.195 812.834 169.538 813.409 169.538 814.506C169.538 816.617 168.688 818.578 167.673 818.578ZM178.462 812.025C177.845 812.025 177.433 812.409 177.433 813.094C177.433 813.766 177.804 814.424 178.366 815.109C177.831 817.207 176.556 818.317 175.898 818.317C175.295 818.317 175.117 817.782 175.446 816.48L175.898 814.684C176.392 812.724 175.651 812.025 174.664 812.025C173.403 812.025 172.814 813.08 172.512 814.314L172.992 814.451C173.307 813.547 173.609 813.122 173.869 813.122C174.089 813.122 174.157 813.409 173.965 814.122L173.444 816.179C172.882 818.372 173.732 819.373 175.144 819.373C178.201 819.373 179.558 815.192 179.558 813.396C179.558 812.464 179.133 812.025 178.462 812.025ZM183.911 818.125C182.993 818.125 182.54 817.44 182.54 816.275V816.22C185.707 815.808 186.817 815.068 186.817 813.725C186.817 812.779 186.036 812.025 184.596 812.025C181.896 812.025 180.237 814.013 180.237 816.398C180.237 818.262 181.334 819.386 183.02 819.386C184.788 819.386 185.885 818.303 186.488 816.823L186.104 816.645C185.611 817.481 184.871 818.125 183.911 818.125ZM184.336 812.806C184.651 812.806 184.816 813.026 184.816 813.396C184.816 814.396 184.034 815.233 182.568 815.685C182.718 814.013 183.486 812.806 184.336 812.806ZM192.718 812.025C191.827 812.025 190.867 813.259 189.688 816.878L190.908 812.107L190.771 812.052L187.81 813.259L187.783 813.409L188.496 813.917L187.632 819.167H189.674L189.921 817.659C190.428 816.233 190.949 815 191.525 814.095C192.444 814.438 193.376 813.917 193.376 812.779C193.376 812.285 193.115 812.025 192.718 812.025ZM196.658 812.82C196.754 812.82 196.85 812.82 196.932 812.834C197.138 813.615 197.563 814.218 198.193 814.218C198.687 814.218 198.988 813.876 198.988 813.409C198.988 812.491 197.755 812.025 196.603 812.025C194.821 812.025 193.697 812.916 193.711 814.342C193.724 815.383 194.314 816.028 195.548 816.576C196.343 816.946 196.809 817.166 196.809 817.714C196.809 818.303 196.233 818.578 195.41 818.578C195.342 818.578 195.273 818.578 195.205 818.564C194.931 817.741 194.465 817.083 193.848 817.083C193.299 817.083 192.984 817.508 192.984 817.961C192.984 818.797 193.944 819.373 195.506 819.386C197.33 819.386 198.536 818.564 198.536 817.042C198.536 815.822 197.782 815.288 196.685 814.767C195.767 814.342 195.465 814.122 195.465 813.629C195.465 813.108 195.931 812.82 196.658 812.82Z" fill="black"/>
<path d="M116.16 71.6363L116.407 71.6774C117.093 71.8008 117.271 72.0201 117.065 73.1716L116.709 75.1867H113.09L113.446 73.1716C113.652 71.9927 113.926 71.7871 114.625 71.6774L114.885 71.6363L114.995 71.0194H110.417L110.307 71.6363L110.554 71.6774C111.239 71.8008 111.417 72.0201 111.212 73.1716L110.293 78.463C110.088 79.6419 109.8 79.8476 109.101 79.9572L108.84 79.9984L108.73 80.6152H113.309L113.432 79.9984L113.186 79.9572C112.487 79.8339 112.322 79.6145 112.514 78.463L112.939 76.0504H116.572L116.147 78.463C115.941 79.6419 115.653 79.8476 114.954 79.9572L114.694 79.9984L114.584 80.6152H119.162L119.286 79.9984L119.039 79.9572C118.34 79.8339 118.175 79.6145 118.367 78.463L119.3 73.1716C119.505 71.9927 119.779 71.7871 120.478 71.6774L120.739 71.6363L120.849 71.0194H116.27L116.16 71.6363ZM123.279 72.6233C124.142 72.6233 124.814 71.9516 124.814 71.1017C124.814 70.5122 124.403 70.0324 123.759 70.0324C122.868 70.0324 122.237 70.6904 122.237 71.5403C122.237 72.1572 122.635 72.6233 123.279 72.6233ZM124.444 78.792C124.101 79.4226 123.786 79.7516 123.526 79.7516C123.238 79.7516 123.279 79.3404 123.361 78.8469L124.266 73.528L124.156 73.5006L121.195 74.7069L121.168 74.8577L121.922 75.3649L121.373 78.4767C121.113 79.9572 121.538 80.8346 122.593 80.8346C123.512 80.8346 124.293 80.3822 124.855 79.0388L124.444 78.792ZM131.021 73.4732C129.829 73.4732 128.992 74.2683 128.307 75.6802L128.979 73.5143L128.855 73.4732L125.881 74.7069L125.853 74.8577L126.58 75.3649L125.223 83.2198H127.251L127.759 80.2862C128.088 80.6427 128.54 80.8346 129.143 80.8346C131.391 80.8346 133.091 78.7235 133.091 76.1326C133.091 74.3231 132.132 73.4732 131.021 73.4732ZM128.732 79.9435C128.334 79.9435 128.088 79.7379 127.923 79.3267L128.266 77.2978C128.773 75.7488 129.541 74.5699 130.185 74.5699C130.583 74.5699 130.788 75.0771 130.788 75.9818C130.788 78.1203 129.842 79.9435 128.732 79.9435ZM143.517 75.8447L143.75 75.8859C144.161 75.9681 144.422 76.1189 144.422 76.5164C144.422 76.8317 144.23 77.2704 143.915 77.7228L142.023 75.3787C143.654 74.8714 144.682 73.8433 144.682 72.6644C144.682 71.4855 143.75 70.8001 142.187 70.8001C140.131 70.8001 138.884 71.9653 138.884 73.5006C138.884 74.282 139.117 74.9263 139.487 75.5706C137.184 76.16 135.95 77.2567 135.95 78.7098C135.95 80.0121 137.033 80.8346 139.103 80.8346C140.597 80.8346 141.79 80.4507 142.736 79.8476L143.325 80.6152H146.382L146.519 79.9709L146.286 79.9298C145.697 79.7927 145.34 79.5186 144.819 78.8469L144.408 78.3397C144.655 78.0381 144.874 77.7091 145.08 77.3938C145.752 76.3245 146.122 76.0092 146.752 75.8859L146.931 75.8447L147.054 75.1867H143.654L143.517 75.8447ZM141.817 71.7185C142.366 71.7185 142.722 72.0749 142.722 72.7741C142.722 73.6103 142.256 74.3917 141.584 74.844C141.05 74.1723 140.721 73.5966 140.721 72.8837C140.721 72.1435 141.2 71.7185 141.817 71.7185ZM140.296 79.8064C139.035 79.8064 138.459 79.2033 138.459 78.2985C138.459 77.4349 138.966 76.6398 139.857 76.1463C140.063 76.4342 140.282 76.7221 140.515 77.0237L142.242 79.2307C141.653 79.5734 140.995 79.8064 140.296 79.8064ZM150.641 74.8714H151.423L151.683 74.186C152.492 72.0887 152.958 71.883 154.096 71.883H154.164L153.027 78.3945C152.821 79.5323 152.465 79.7927 151.56 79.9298L151.299 79.9709L151.176 80.6152H156.344L156.481 79.9709L156.234 79.9298C155.22 79.779 155.055 79.5323 155.247 78.3945L156.385 71.883C157.893 71.883 158.003 72.637 158.071 74.0627L158.099 74.8714H158.894L159.593 71.0194H151.34L150.641 74.8714ZM164.846 73.4732C163.955 73.4732 162.996 74.7069 161.817 78.3259L163.037 73.5554L162.9 73.5006L159.939 74.7069L159.911 74.8577L160.624 75.3649L159.761 80.6152H161.803L162.05 79.1073C162.557 77.6817 163.078 76.4479 163.654 75.5432C164.572 75.8859 165.504 75.3649 165.504 74.2272C165.504 73.7337 165.244 73.4732 164.846 73.4732ZM169.119 79.5734C168.2 79.5734 167.748 78.888 167.748 77.7228V77.6679C170.915 77.2567 172.025 76.5164 172.025 75.173C172.025 74.2272 171.244 73.4732 169.804 73.4732C167.104 73.4732 165.445 75.4609 165.445 77.8462C165.445 79.7105 166.542 80.8346 168.228 80.8346C169.996 80.8346 171.093 79.7516 171.696 78.2711L171.312 78.0929C170.819 78.9291 170.078 79.5734 169.119 79.5734ZM169.544 74.2546C169.859 74.2546 170.024 74.4739 170.024 74.844C170.024 75.8447 169.242 76.6809 167.775 77.1333C167.926 75.4609 168.694 74.2546 169.544 74.2546ZM180.146 78.6687C179.708 79.3678 179.365 79.7516 179.063 79.7516C178.789 79.7516 178.776 79.3678 178.967 78.6961L179.667 76.1874C180.146 74.4054 179.653 73.4732 178.57 73.4732C177.131 73.4732 176.157 74.8029 175.403 76.1189L176.13 73.5143L176.006 73.4732L173.018 74.7069L172.991 74.8577L173.731 75.3649L172.812 80.6152H174.841L175.513 76.9003C176.02 75.9818 176.87 74.8029 177.473 74.8029C177.802 74.8029 177.843 75.2142 177.651 75.8859L176.952 78.4356C176.555 79.8476 176.98 80.8346 178.2 80.8346C179.159 80.8346 179.954 80.2999 180.53 78.888L180.146 78.6687ZM188.906 78.6824C188.468 79.3541 188.166 79.7516 187.851 79.7516C187.577 79.7516 187.59 79.3815 187.686 78.8469L189.29 69.6211L189.18 69.58L186.219 70.7864L186.178 70.9372L186.919 71.5129L186.48 74.0215C186.165 73.6788 185.74 73.4732 185.15 73.4732C182.984 73.4732 181.188 75.6391 181.188 78.2437C181.188 79.9847 182.148 80.8346 183.258 80.8346C184.369 80.8346 185.191 80.1766 185.863 78.9702C185.685 80.0395 186 80.8346 187.001 80.8346C187.823 80.8346 188.687 80.2862 189.318 78.9291L188.906 78.6824ZM184.122 79.7653C183.683 79.7653 183.491 79.2444 183.491 78.3259C183.491 76.256 184.437 74.3917 185.534 74.3917C185.89 74.3917 186.137 74.5973 186.315 74.9948L185.904 77.3252C185.411 78.7372 184.698 79.7653 184.122 79.7653ZM195.721 73.4732C195.132 73.4732 194.638 73.8433 194.638 74.515C194.638 75.2004 195.063 75.8036 195.653 76.5027C195.2 78.1203 194.46 79.4089 193.638 80.3822L193.322 76.0641C193.172 73.9941 192.459 73.4732 191.581 73.4732C190.389 73.4732 189.827 74.5287 189.539 75.7625L190.005 75.8996C190.293 75.0222 190.567 74.6247 190.827 74.6247C191.047 74.6247 191.225 74.9674 191.321 76.2697L191.773 82.0409C191.458 82.2328 191.17 82.3699 190.91 82.4796C190.306 81.7667 189.854 81.5063 189.388 81.5063C188.853 81.5063 188.456 81.8901 188.456 82.4796C188.456 83.069 188.826 83.4392 189.635 83.4392C194.008 83.4392 196.818 77.4486 196.818 74.9674C196.818 73.9119 196.42 73.4732 195.721 73.4732Z" fill="black"/>
<path d="M468.521 423.477L468.672 423.518C469.508 423.683 469.371 424.505 468.631 425.451L467.191 427.288L466.355 425.259C465.958 424.258 466.218 423.683 466.931 423.532L467.136 423.477L467.26 422.86H462.668L462.558 423.477L462.681 423.532C463.188 423.71 463.463 424.258 463.709 424.779L465.313 428.193L464.971 430.304C464.792 431.401 464.367 431.688 463.709 431.798L463.449 431.839L463.353 432.456H468.028L468.137 431.839L467.89 431.798C467.095 431.661 467.041 431.291 467.205 430.304L467.548 428.22L470.262 424.916C471.084 423.916 471.496 423.628 471.838 423.518L471.976 423.477L472.085 422.86H468.644L468.521 423.477ZM473.511 432.662C476.252 432.662 477.788 430.66 477.788 428.316C477.788 426.342 476.581 425.314 474.84 425.314C472.14 425.314 470.577 427.288 470.577 429.632C470.577 431.592 471.783 432.662 473.511 432.662ZM473.702 431.867C473.127 431.867 472.798 431.25 472.798 430.167C472.798 428.056 473.634 426.123 474.635 426.123C475.224 426.123 475.567 426.699 475.567 427.795C475.567 429.906 474.717 431.867 473.702 431.867ZM486.136 430.605C485.82 431.222 485.533 431.592 485.231 431.592C484.943 431.592 484.957 431.154 485.039 430.688L485.944 425.52H483.888L483.312 428.933C482.832 430.222 482.133 431.455 481.461 431.455C481.036 431.455 481.009 430.88 481.228 430.071L481.804 428.001C482.338 426.027 481.626 425.314 480.652 425.314C479.446 425.314 478.788 426.383 478.473 427.603L478.939 427.754C479.282 426.767 479.638 426.356 479.885 426.356C480.09 426.356 480.118 426.671 479.981 427.178L479.254 429.893C478.802 431.634 479.391 432.675 480.598 432.675C481.639 432.675 482.53 432.004 483.298 430.482L483.271 430.633C483.01 431.812 483.339 432.675 484.34 432.675C485.121 432.675 486.053 432.182 486.561 430.838L486.136 430.605ZM494.769 430.509C494.331 431.209 493.988 431.592 493.686 431.592C493.412 431.592 493.399 431.209 493.59 430.537L494.29 428.028C494.769 426.246 494.276 425.314 493.193 425.314C491.754 425.314 490.78 426.644 490.026 427.96L490.753 425.355L490.629 425.314L487.641 426.548L487.614 426.699L488.354 427.206L487.435 432.456H489.464L490.136 428.741C490.643 427.823 491.493 426.644 492.096 426.644C492.425 426.644 492.466 427.055 492.274 427.727L491.575 430.276C491.178 431.688 491.603 432.675 492.823 432.675C493.782 432.675 494.577 432.141 495.153 430.729L494.769 430.509ZM500.801 425.52C500.472 425.383 500.089 425.314 499.636 425.314C497.799 425.314 496.387 426.534 496.387 428.138C496.387 428.823 496.689 429.413 497.292 429.783C496.346 430.085 495.853 430.496 495.853 431.181C495.853 431.825 496.319 432.25 497.251 432.442C495.633 432.662 494.742 433.114 494.742 433.827C494.742 434.773 495.894 435.266 497.936 435.266C500.609 435.266 502.268 434.457 502.268 432.854C502.268 431.743 501.336 431.346 500.171 431.181L497.936 430.88C497.539 430.825 497.347 430.743 497.347 430.537C497.347 430.359 497.566 430.194 497.923 430.043C498.183 430.112 498.471 430.153 498.786 430.153C500.637 430.153 502.09 428.851 502.09 427.329C502.09 426.973 501.994 426.616 501.788 426.315H503.269L503.406 425.52H500.801ZM498.937 429.385C498.471 429.385 498.197 428.933 498.197 428.22C498.197 427.069 498.773 426.095 499.485 426.095C499.979 426.095 500.253 426.548 500.253 427.219C500.253 428.357 499.664 429.385 498.937 429.385ZM500.582 433.402C500.582 434.142 499.581 434.499 498.43 434.499C497.196 434.499 496.785 434.156 496.785 433.704C496.785 433.265 497.21 432.826 498.073 432.566L499.622 432.785C500.28 432.881 500.582 433.018 500.582 433.402ZM514.522 431.784C514.028 431.62 513.905 431.126 513.795 430.482L512.425 422.86H510.08L506.132 430.359C505.625 431.318 505.214 431.688 504.844 431.798L504.707 431.839L504.583 432.456H508.01L508.12 431.839L507.873 431.784C506.927 431.551 506.982 430.797 507.38 430.016L507.777 429.248H511.204L511.355 430.194C511.506 431.058 511.204 431.647 510.492 431.784L510.231 431.839L510.122 432.456H514.549L514.659 431.839L514.522 431.784ZM510.368 424.149L511.067 428.44H508.189L510.368 424.149ZM520.587 425.52C520.258 425.383 519.875 425.314 519.422 425.314C517.585 425.314 516.173 426.534 516.173 428.138C516.173 428.823 516.475 429.413 517.078 429.783C516.132 430.085 515.639 430.496 515.639 431.181C515.639 431.825 516.105 432.25 517.037 432.442C515.419 432.662 514.528 433.114 514.528 433.827C514.528 434.773 515.68 435.266 517.722 435.266C520.396 435.266 522.054 434.457 522.054 432.854C522.054 431.743 521.122 431.346 519.957 431.181L517.722 430.88C517.325 430.825 517.133 430.743 517.133 430.537C517.133 430.359 517.352 430.194 517.709 430.043C517.969 430.112 518.257 430.153 518.572 430.153C520.423 430.153 521.876 428.851 521.876 427.329C521.876 426.973 521.78 426.616 521.574 426.315H523.055L523.192 425.52H520.587ZM518.723 429.385C518.257 429.385 517.983 428.933 517.983 428.22C517.983 427.069 518.559 426.095 519.271 426.095C519.765 426.095 520.039 426.548 520.039 427.219C520.039 428.357 519.45 429.385 518.723 429.385ZM520.368 433.402C520.368 434.142 519.367 434.499 518.216 434.499C516.982 434.499 516.571 434.156 516.571 433.704C516.571 433.265 516.996 432.826 517.859 432.566L519.409 432.785C520.067 432.881 520.368 433.018 520.368 433.402ZM526.741 431.414C525.823 431.414 525.37 430.729 525.37 429.564V429.509C528.537 429.098 529.647 428.357 529.647 427.014C529.647 426.068 528.866 425.314 527.426 425.314C524.726 425.314 523.067 427.302 523.067 429.687C523.067 431.551 524.164 432.675 525.85 432.675C527.618 432.675 528.715 431.592 529.318 430.112L528.934 429.934C528.441 430.77 527.701 431.414 526.741 431.414ZM527.166 426.095C527.481 426.095 527.646 426.315 527.646 426.685C527.646 427.686 526.864 428.522 525.398 428.974C525.548 427.302 526.316 426.095 527.166 426.095ZM482.914 448.879C482.42 449.66 481.995 449.811 481.173 449.811H478.966C481.845 448.81 483.764 447.261 483.764 445.685C483.764 444.437 482.79 443.848 481.543 443.848C479.391 443.848 477.362 445.109 477.362 446.274C477.362 446.727 477.691 446.973 478.116 446.973C478.801 446.973 479.569 446.425 479.679 444.849C479.829 444.821 479.994 444.808 480.158 444.808C480.94 444.808 481.379 445.205 481.379 445.973C481.379 447.412 479.665 448.92 477.074 450.03L476.773 451.456H483.147L483.682 448.522H483.133L482.914 448.879ZM488.214 451.662C491.065 451.662 492.943 449.592 492.943 446.96C492.943 444.931 491.6 443.848 489.598 443.848C486.788 443.848 484.869 445.918 484.869 448.522C484.869 450.538 486.185 451.662 488.214 451.662ZM488.378 450.853C487.583 450.853 487.172 450.154 487.172 448.865C487.172 446.603 488.159 444.657 489.434 444.657C490.229 444.657 490.654 445.411 490.654 446.658C490.654 448.92 489.598 450.853 488.378 450.853ZM494.114 447.33L493.963 448.235H498.651L498.816 447.33H494.114ZM503.537 448.632C505.305 448.207 506.58 447.015 506.58 445.699C506.58 444.492 505.634 443.848 504.154 443.848C502.262 443.848 500.124 444.876 500.124 446.247C500.124 446.686 500.384 446.946 500.836 446.946C501.535 446.946 502.248 446.274 502.331 444.876C502.536 444.835 502.769 444.821 503.016 444.821C503.756 444.821 504.195 445.205 504.195 446C504.195 447.398 503.29 448.331 501.906 448.331H501.385L501.206 449.18H501.864C502.975 449.18 503.811 449.619 503.811 450.716C503.811 452.073 502.797 453.019 501.344 453.046C501.193 451.579 500.754 450.921 499.986 450.921C499.397 450.921 499.054 451.319 499.054 451.854C499.054 452.978 500.398 453.828 502.002 453.828C504.222 453.828 506.114 452.594 506.114 450.798C506.114 449.551 505.182 448.824 503.537 448.632ZM514.373 444.054H509.054L507.793 449.688H508.697C509.136 449.318 509.698 448.893 510.452 448.893C511.206 448.893 511.617 449.359 511.617 450.222C511.617 451.895 510.493 453.033 509.013 453.033H508.93C508.889 451.36 508.314 450.825 507.724 450.825C507.148 450.825 506.778 451.25 506.778 451.799C506.778 452.964 508.026 453.828 509.794 453.828C512.152 453.828 513.961 452.361 513.961 450.072C513.961 448.646 513.057 447.769 511.617 447.769C510.466 447.769 509.534 448.248 508.889 448.824L509.588 445.918L513.989 445.959L514.373 444.054Z" fill="black"/>
<circle cx="54.6117" cy="300.432" r="6.20749" fill="black" stroke="black" stroke-width="2.03489"/>
<circle cx="346.017" cy="608.698" r="6.20749" fill="black" stroke="black" stroke-width="2.03489"/>
<circle cx="7.25131" cy="233.801" r="6.20749" fill="black" stroke="black" stroke-width="2.03489"/>
<circle cx="293.282" cy="541.95" r="6.20749" fill="black" stroke="black" stroke-width="2.03489"/>
<circle cx="356.999" cy="302.835" r="6.20749" fill="black" stroke="black" stroke-width="2.03489"/>
<circle cx="7.25131" cy="549.288" r="6.20749" fill="black" stroke="black" stroke-width="2.03489"/>
<circle cx="306.224" cy="135.225" r="6.20749" fill="black" stroke="black" stroke-width="2.03489"/>
<circle cx="300.262" cy="293.205" r="6.20749" fill="black" stroke="black" stroke-width="2.03489"/>
<circle cx="54.224" cy="780.225" r="6.20749" fill="black" stroke="black" stroke-width="2.03489"/>
<circle cx="273.772" cy="664.89" r="6.20749" fill="black" stroke="black" stroke-width="2.03489"/>
<circle cx="313.103" cy="248.248" r="6.20749" fill="black" stroke="black" stroke-width="2.03489"/>
<circle cx="148.343" cy="441.491" r="73.9954" fill="black"/>
<path d="M133.675 423.266L133.913 423.334C135.137 423.657 134.814 424.558 134.321 425.561L130.683 432.871L129.442 425.306C129.255 424.201 129.697 423.487 130.53 423.334L130.853 423.266L130.989 422.502H125.516L125.38 423.266L125.533 423.334C126.264 423.589 126.366 424.422 126.451 424.949L128.133 434.4H131.04L135.987 425.102C136.718 423.725 137.091 423.487 137.584 423.317L137.72 423.266L137.856 422.502H133.811L133.675 423.266ZM145.9 431.97C145.373 432.905 144.948 433.329 144.591 433.329C144.285 433.329 144.268 432.973 144.404 432.208L145.526 425.799H145.05L143.316 426.802C142.925 426.02 142.296 425.544 141.242 425.544C138.625 425.544 136.449 428.23 136.449 431.46C136.449 433.618 137.605 434.672 138.982 434.672C140.375 434.672 141.446 433.754 142.262 432.072C141.922 433.635 142.347 434.672 143.52 434.672C144.506 434.672 145.645 434.06 146.41 432.276L145.9 431.97ZM140.053 433.363C139.492 433.363 139.288 432.701 139.288 431.664C139.288 428.978 140.46 426.666 141.786 426.666C142.228 426.666 142.534 426.938 142.738 427.448L142.228 430.27C141.582 432.106 140.715 433.363 140.053 433.363ZM151.507 432.004C150.98 432.82 150.589 433.329 150.198 433.329C149.841 433.329 149.892 432.82 149.994 432.208L151.983 420.768L151.83 420.717L148.209 422.213L148.175 422.4L149.059 423.063L147.58 431.511C147.206 433.618 147.648 434.672 149.144 434.672C150.147 434.672 151.252 434.009 152.017 432.31L151.507 432.004ZM162.165 432.106C161.775 432.871 161.418 433.329 161.044 433.329C160.687 433.329 160.704 432.786 160.806 432.208L161.928 425.799H159.378L158.664 430.032C158.069 431.63 157.202 433.16 156.369 433.16C155.842 433.16 155.808 432.446 156.08 431.443L156.794 428.876C157.457 426.428 156.573 425.544 155.366 425.544C153.87 425.544 153.054 426.87 152.663 428.383L153.241 428.57C153.666 427.346 154.108 426.836 154.414 426.836C154.669 426.836 154.703 427.227 154.533 427.856L153.632 431.222C153.071 433.38 153.802 434.672 155.298 434.672C156.59 434.672 157.695 433.839 158.647 431.953L158.613 432.14C158.29 433.601 158.698 434.672 159.939 434.672C160.908 434.672 162.063 434.06 162.692 432.395L162.165 432.106ZM168.095 433.109C166.956 433.109 166.395 432.259 166.395 430.814V430.746C170.322 430.236 171.698 429.318 171.698 427.652C171.698 426.479 170.729 425.544 168.945 425.544C165.596 425.544 163.539 428.009 163.539 430.967C163.539 433.279 164.899 434.672 166.99 434.672C169.183 434.672 170.542 433.329 171.29 431.494L170.814 431.273C170.203 432.31 169.285 433.109 168.095 433.109ZM168.622 426.513C169.013 426.513 169.217 426.785 169.217 427.244C169.217 428.485 168.248 429.522 166.429 430.083C166.616 428.009 167.568 426.513 168.622 426.513ZM131.46 456.004C130.916 456.837 130.542 457.329 130.152 457.329C129.812 457.329 129.829 456.871 129.948 456.208L131.936 444.768L131.8 444.717L128.129 446.213L128.078 446.4L128.996 447.113L128.452 450.224C128.061 449.799 127.534 449.544 126.803 449.544C124.117 449.544 121.89 452.23 121.89 455.46C121.89 457.618 123.08 458.672 124.457 458.672C125.834 458.672 126.854 457.856 127.687 456.361C127.466 457.686 127.857 458.672 129.098 458.672C130.118 458.672 131.188 457.992 131.97 456.31L131.46 456.004ZM125.528 457.346C124.984 457.346 124.746 456.701 124.746 455.562C124.746 452.995 125.919 450.683 127.279 450.683C127.721 450.683 128.027 450.938 128.248 451.431L127.738 454.321C127.126 456.072 126.242 457.346 125.528 457.346ZM139.308 449.544C138.203 449.544 137.013 451.074 135.551 455.562L137.064 449.646L136.894 449.578L133.223 451.074L133.189 451.261L134.073 451.89L133.002 458.4H135.534L135.84 456.531C136.469 454.763 137.115 453.233 137.829 452.111C138.968 452.536 140.124 451.89 140.124 450.479C140.124 449.867 139.801 449.544 139.308 449.544ZM143.208 448.49C144.279 448.49 145.112 447.657 145.112 446.604C145.112 445.873 144.602 445.278 143.803 445.278C142.698 445.278 141.916 446.094 141.916 447.147C141.916 447.912 142.409 448.49 143.208 448.49ZM144.653 456.14C144.228 456.922 143.837 457.329 143.514 457.329C143.157 457.329 143.208 456.82 143.31 456.208L144.432 449.612L144.296 449.578L140.624 451.074L140.59 451.261L141.525 451.89L140.845 455.749C140.522 457.584 141.049 458.672 142.358 458.672C143.497 458.672 144.466 458.111 145.163 456.446L144.653 456.14ZM153.37 449.544C152.605 449.544 152.095 450.02 152.095 450.87C152.095 451.703 152.554 452.519 153.251 453.369C152.588 455.97 151.007 457.346 150.191 457.346C149.443 457.346 149.222 456.684 149.63 455.069L150.191 452.842C150.803 450.411 149.885 449.544 148.661 449.544C147.097 449.544 146.366 450.853 145.992 452.383L146.587 452.553C146.978 451.431 147.352 450.904 147.675 450.904C147.947 450.904 148.032 451.261 147.794 452.145L147.148 454.695C146.451 457.414 147.505 458.655 149.256 458.655C153.047 458.655 154.729 453.471 154.729 451.244C154.729 450.088 154.202 449.544 153.37 449.544ZM160.127 457.109C158.988 457.109 158.427 456.259 158.427 454.814V454.746C162.354 454.236 163.73 453.318 163.73 451.652C163.73 450.479 162.761 449.544 160.977 449.544C157.628 449.544 155.571 452.009 155.571 454.967C155.571 457.279 156.931 458.672 159.022 458.672C161.215 458.672 162.575 457.329 163.322 455.494L162.846 455.273C162.235 456.31 161.317 457.109 160.127 457.109ZM160.654 450.513C161.045 450.513 161.249 450.785 161.249 451.244C161.249 452.485 160.28 453.522 158.461 454.083C158.648 452.009 159.6 450.513 160.654 450.513ZM173.801 455.987C173.257 456.854 172.832 457.329 172.458 457.329C172.118 457.329 172.101 456.854 172.339 456.021L173.206 452.91C173.801 450.7 173.189 449.544 171.846 449.544C170.061 449.544 168.854 451.193 167.919 452.825L168.82 449.595L168.667 449.544L164.962 451.074L164.928 451.261L165.846 451.89L164.707 458.4H167.222L168.055 453.794C168.684 452.655 169.738 451.193 170.486 451.193C170.894 451.193 170.945 451.703 170.707 452.536L169.84 455.698C169.347 457.448 169.874 458.672 171.387 458.672C172.577 458.672 173.563 458.009 174.277 456.259L173.801 455.987Z" fill="#FAFAFA"/>
<path d="M377.659 464.333L440.674 499.988" stroke="#F3A8BE" stroke-width="5.94716" stroke-miterlimit="10"/>
<path d="M372.964 482.465L445.364 481.837" stroke="#F3A8BE" stroke-width="5.94716" stroke-miterlimit="10"/>
<path d="M377.97 500.542L440.357 463.796" stroke="#F3A8BE" stroke-width="5.94716" stroke-miterlimit="10"/>
<path d="M391.337 513.668L426.992 450.649" stroke="#F3A8BE" stroke-width="5.94716" stroke-miterlimit="10"/>
<path d="M409.481 518.365L408.851 445.961" stroke="#F3A8BE" stroke-width="5.94716" stroke-miterlimit="10"/>
<path d="M427.537 513.355L390.792 450.969" stroke="#F3A8BE" stroke-width="5.94716" stroke-miterlimit="10"/>
<path d="M192.658 241.329C164.965 241.329 147.329 258.955 147.329 286.658C147.329 258.955 129.703 241.329 102 241.329C129.703 241.329 147.329 223.703 147.329 196C147.339 223.703 164.965 241.329 192.658 241.329Z" fill="#8790C4"/>
<path d="M144.146 753.003C221.439 753.003 145.992 828.462 145.992 751.157C145.992 828.462 70.5447 753.003 147.838 753.003C70.5447 753.003 145.992 677.545 145.992 754.849C146.065 677.53 221.439 753.003 144.146 753.003Z" fill="#F0B35E"/>
</svg>
