<svg width="1391" height="170" viewBox="0 0 1391 170" fill="none" xmlns="http://www.w3.org/2000/svg">
<path d="M69.924 109.458C86.8609 109.458 101.106 99.812 101.106 73.3412V50.011C101.106 40.3648 102.788 34.7566 110.303 33.635L112.547 33.2985V29.4849H82.4864V33.2985L84.7297 33.635C92.2448 34.7566 93.9272 40.3648 93.9272 50.011V73.3412C93.9272 94.6524 84.3932 101.719 70.9335 101.719C57.5859 101.719 47.8276 93.6429 47.8276 73.3412V45.6366C47.8276 38.2337 49.5101 34.7566 57.0251 33.635L59.2684 33.2985V29.4849H24.7217V33.2985L26.965 33.635C34.4801 34.7566 36.1625 38.2337 36.1625 45.6366V73.3412C36.1625 99.812 51.3047 109.458 69.924 109.458ZM199.399 103.85C194.351 102.504 189.528 98.0174 185.042 91.8483L167.432 67.733L184.144 44.5149C188.631 38.2337 191.771 34.9809 196.37 33.635L197.492 33.2985V29.4849H167.993V33.2985L170.348 33.8593C178.76 35.8783 177.527 41.2621 172.816 48.1042L163.17 61.9004L151.953 46.646C146.681 39.4675 148.252 35.6539 155.542 33.8593L157.786 33.2985V29.4849H122.678V33.2985L123.912 33.635C128.174 34.7566 130.978 37.2242 136.587 44.8514L152.177 66.0505L132.885 92.97C128.399 99.2512 125.258 102.504 120.659 103.85L119.538 104.186V108H149.037V104.186L146.681 103.626C138.269 101.607 139.391 96.1106 144.214 89.3807L156.664 72.2195L170.348 90.8388C175.62 98.0174 174.498 102.055 168.217 103.626L165.974 104.186V108H200.632V104.186L199.399 103.85ZM213.481 119.216L255.207 10.4169H246.233L204.508 119.216H213.481ZM306.083 109.458C323.02 109.458 337.265 99.812 337.265 73.3412V50.011C337.265 40.3648 338.947 34.7566 346.462 33.635L348.705 33.2985V29.4849H318.645V33.2985L320.889 33.635C328.404 34.7566 330.086 40.3648 330.086 50.011V73.3412C330.086 94.6524 320.552 101.719 307.092 101.719C293.745 101.719 283.986 93.6429 283.986 73.3412V45.6366C283.986 38.2337 285.669 34.7566 293.184 33.635L295.427 33.2985V29.4849H260.881V33.2985L263.124 33.635C270.639 34.7566 272.321 38.2337 272.321 45.6366V73.3412C272.321 99.812 287.463 109.458 306.083 109.458ZM392.823 108V104.186L390.579 103.85C383.064 102.728 381.382 99.2512 381.382 91.8483V45.6366C381.382 38.2337 383.064 34.7566 390.579 33.635L392.823 33.2985V29.4849H358.276V33.2985L360.519 33.635C368.034 34.7566 369.717 38.2337 369.717 45.6366V91.8483C369.717 99.2512 368.034 102.728 360.519 103.85L358.276 104.186V108H392.823Z" fill="black"/>
<path d="M596.536 21.4849V25.2985L598.78 25.635C606.295 26.7566 607.977 30.2337 607.977 37.6366V83.8483C607.977 91.2512 606.295 94.7283 598.78 95.8499L596.536 96.1864V100H633.999C659.909 100 677.407 87.6619 677.407 60.8546C677.407 34.0473 659.909 21.4849 633.999 21.4849H596.536ZM619.642 94.3918V27.0931H632.653C652.955 27.0931 664.059 39.319 664.059 60.8546C664.059 82.3902 652.955 94.3918 632.653 94.3918H619.642ZM715.941 42.4596C701.472 42.4596 686.89 53.9004 686.89 73.5292C686.89 91.0268 699.116 101.458 713.922 101.458C728.167 101.458 736.018 93.0458 739.832 83.1753L735.906 81.7172C733.102 87.2133 727.157 92.485 717.399 92.485C706.182 92.485 699.34 85.3065 699.34 71.1737H740.168C741.851 53.7882 733.663 42.4596 715.941 42.4596ZM715.941 47.9557C724.129 47.9557 728.279 54.5734 728.167 66.1263H699.677C701.135 54.4612 707.753 47.9557 715.941 47.9557ZM770.522 96.0742C760.988 96.0742 756.726 91.812 756.053 82.0537L755.828 78.6888H752.015L749.211 97.6445C754.37 99.6635 761.1 101.458 769.176 101.458C783.421 101.458 793.74 96.1864 793.74 83.2875C793.74 72.8562 786.898 67.6966 774.336 65.3412C763.119 63.2101 760.203 60.2938 760.203 55.4707C760.203 50.6476 764.577 47.8435 772.204 47.8435C778.934 47.8435 784.879 50.4233 785.44 60.6303L785.552 62.8736H789.478L792.058 46.6097C788.805 44.9272 781.626 42.4596 773.102 42.4596C757.399 42.4596 750.669 49.1895 750.669 58.4991C750.669 67.4723 757.174 72.9684 770.298 75.6603C780.28 77.7914 784.094 79.9226 784.094 85.8673C784.094 92.485 778.822 96.0742 770.522 96.0742ZM818.231 31.9162C822.718 31.9162 826.531 28.1026 826.531 23.5038C826.531 18.9051 822.718 15.2037 818.231 15.2037C813.52 15.2037 809.819 18.9051 809.819 23.5038C809.819 28.1026 813.52 31.9162 818.231 31.9162ZM833.934 100V96.1864L831.691 95.8499C826.307 95.0648 824.737 92.7093 824.737 87.5497V42.5718L823.615 42.4596L804.772 52.1058V53.3396L813.633 57.2653V87.5497C813.633 92.7093 812.062 95.0648 806.678 95.8499L804.435 96.1864V100H833.934ZM858.807 90.2417C853.984 90.2417 852.301 88.7836 852.301 86.6524C852.301 83.7362 854.769 81.4929 859.592 79.6982C861.835 80.2591 864.303 80.5955 866.995 80.5955C881.688 80.5955 890.437 71.6224 890.437 61.1911C890.437 56.4802 888.643 52.2179 885.39 48.9652H898.401V43.9178H876.865C873.949 43.0205 870.696 42.4596 866.995 42.4596C852.413 42.4596 843.777 50.7598 843.777 61.1911C843.777 68.1453 847.702 74.4265 854.545 77.9036C847.029 81.0442 844.113 85.1943 844.113 89.3444C844.113 93.831 847.029 97.7567 853.086 99.327C844.001 101.458 839.29 105.384 839.29 110.207C839.29 118.619 850.619 122.657 867.892 122.657C885.838 122.657 899.186 115.815 899.186 103.365C899.186 93.0458 891.783 90.2417 881.576 90.2417H858.807ZM866.995 47.507C874.622 47.507 878.884 53.1153 878.884 61.1911C878.884 69.7156 874.622 75.5481 866.995 75.5481C859.48 75.5481 855.33 69.7156 855.33 61.1911C855.33 53.1153 859.48 47.507 866.995 47.507ZM868.902 117.498C856.227 117.498 851.18 113.46 851.18 108.524C851.18 104.711 854.208 101.907 859.143 100H879.782C886.287 100 889.091 101.458 889.091 105.945C889.091 111.777 882.025 117.498 868.902 117.498ZM971.142 95.8499C965.758 95.0648 964.188 92.7093 964.188 87.5497V62.8736C964.188 50.0868 959.926 42.4596 948.261 42.4596C938.502 42.4596 930.651 49.7503 925.042 57.041L927.398 42.684L926.164 42.4596L906.311 52.1058V53.3396L915.172 57.2653V87.5497C915.172 92.7093 913.602 95.0648 908.218 95.8499L905.975 96.1864V100H935.474V96.1864L933.231 95.8499C927.847 95.0648 926.276 92.7093 926.276 87.5497V60.1816C930.763 56.1437 937.717 51.3206 944.896 51.3206C951.625 51.3206 953.084 56.4802 953.084 63.883V87.5497C953.084 92.7093 951.513 95.0648 946.129 95.8499L943.886 96.1864V100H973.385V96.1864L971.142 95.8499Z" fill="black"/>
<path d="M496.696 67.004C592.727 67.004 498.99 160.756 498.99 64.7103C498.99 160.756 405.253 67.004 501.283 67.004C405.253 67.004 498.99 -26.7475 498.99 69.2978C499.081 -26.7657 592.727 67.004 496.696 67.004Z" fill="#F0B35E"/>
<path d="M1030.86 42.2744L1111.14 87.7009" stroke="#F3A8BE" stroke-width="7.57692" stroke-miterlimit="10"/>
<path d="M1024.87 65.375L1117.11 64.5745" stroke="#F3A8BE" stroke-width="7.57692" stroke-miterlimit="10"/>
<path d="M1031.25 88.4052L1110.73 41.5905" stroke="#F3A8BE" stroke-width="7.57692" stroke-miterlimit="10"/>
<path d="M1048.28 105.128L1093.7 24.8392" stroke="#F3A8BE" stroke-width="7.57692" stroke-miterlimit="10"/>
<path d="M1071.4 111.113L1070.6 18.8668" stroke="#F3A8BE" stroke-width="7.57692" stroke-miterlimit="10"/>
<path d="M1094.4 104.73L1047.59 25.2471" stroke="#F3A8BE" stroke-width="7.57692" stroke-miterlimit="10"/>
<path d="M1354.61 34C1355.01 43.3093 1358.97 52.098 1365.66 58.5018C1372.35 64.9057 1381.25 68.4211 1390.46 68.3028" stroke="black" stroke-width="4.4966" stroke-miterlimit="10"/>
<path d="M1353.81 102.395C1354.18 92.957 1358.23 84.0521 1365.07 77.625C1371.92 71.1979 1381 67.7707 1390.33 68.092" stroke="black" stroke-width="4.4966" stroke-miterlimit="10"/>
<path d="M1158 67.9998L1390.49 68.083" stroke="black" stroke-width="7.08806" stroke-miterlimit="10"/>
</svg>
